<svg width="208" height="64" xmlns="http://www.w3.org/2000/svg" xmlns:xlink="http://www.w3.org/1999/xlink" xml:space="preserve" overflow="hidden"><g transform="translate(-137 -32)"><g><g><g><g><path d="M191.929 53.1008 191.929 7.54442 192.618 7.54442 192.618 53.1008 191.929 53.1008Z" fill="#A6A6A6" fill-rule="evenodd" fill-opacity="1" transform="matrix(1 0 0 1.00093 67.7432 33)"/><path d="M254.36 33.6552 251.649 41.5214 250.009 41.5214 253.425 32.446 254.472 32.446 254.36 33.6552ZM256.629 41.5214 253.911 33.6552 253.793 32.446 254.846 32.446 258.275 41.5214 256.629 41.5214ZM256.498 38.1555 256.498 39.3959 251.562 39.3959 251.562 38.1555 256.498 38.1555Z" fill="#58595B" fill-rule="nonzero" fill-opacity="1" transform="matrix(1 0 0 1.00093 67.7432 33)"/><path d="M247.379 32.446 247.379 41.5214 245.827 41.5214 245.827 32.446 247.379 32.446ZM250.228 32.446 250.228 33.6926 243.004 33.6926 243.004 32.446 250.228 32.446Z" fill="#58595B" fill-rule="nonzero" fill-opacity="1" transform="matrix(1 0 0 1.00093 67.7432 33)"/><path d="M237.008 32.446 237.008 41.5214 235.449 41.5214 235.449 32.446 237.008 32.446ZM242.468 32.446 238.777 37.6195 236.565 37.6195 236.353 36.2607 237.911 36.2607 240.554 32.446 242.468 32.446ZM240.872 41.5214 237.936 37.3826 238.946 36.1796 242.748 41.5214 240.872 41.5214Z" fill="#58595B" fill-rule="nonzero" fill-opacity="1" transform="matrix(1 0 0 1.00093 67.7432 33)"/><path d="M234.14 40.281 234.14 41.5214 229.322 41.5214 229.322 40.281 234.14 40.281ZM229.764 32.446 229.764 41.5214 228.2 41.5214 228.2 32.446 229.764 32.446ZM233.511 36.2357 233.511 37.4574 229.322 37.4574 229.322 36.2357 233.511 36.2357ZM234.109 32.446 234.109 33.6926 229.322 33.6926 229.322 32.446 234.109 32.446Z" fill="#58595B" fill-rule="nonzero" fill-opacity="1" transform="matrix(1 0 0 1.00093 67.7432 33)"/><path d="M226.635 36.7345 226.635 37.2332C226.635 37.9188 226.546 38.5338 226.368 39.0782 226.189 39.6225 225.933 40.0858 225.601 40.4681 225.273 40.8504 224.878 41.1434 224.416 41.347 223.955 41.5465 223.444 41.6462 222.883 41.6462 222.326 41.6462 221.818 41.5465 221.356 41.347 220.899 41.1434 220.502 40.8504 220.166 40.4681 219.829 40.0858 219.567 39.6225 219.38 39.0782 219.197 38.5338 219.106 37.9188 219.106 37.2332L219.106 36.7345C219.106 36.0488 219.197 35.4359 219.38 34.8957 219.563 34.3513 219.821 33.8881 220.153 33.5057 220.49 33.1193 220.887 32.8263 221.343 32.6268 221.805 32.4233 222.314 32.3214 222.871 32.3214 223.432 32.3214 223.943 32.4233 224.404 32.6268 224.865 32.8263 225.262 33.1193 225.595 33.5057 225.927 33.8881 226.183 34.3513 226.361 34.8957 226.544 35.4359 226.635 36.0488 226.635 36.7345ZM225.071 37.2332 225.071 36.722C225.071 36.2151 225.021 35.7684 224.922 35.3819 224.826 34.9913 224.682 34.6651 224.492 34.4033 224.304 34.1374 224.074 33.9379 223.799 33.8049 223.525 33.6678 223.216 33.5992 222.871 33.5992 222.526 33.5992 222.218 33.6678 221.948 33.8049 221.678 33.9379 221.448 34.1374 221.256 34.4033 221.069 34.6651 220.926 34.9913 220.827 35.3819 220.727 35.7684 220.677 36.2151 220.677 36.722L220.677 37.2332C220.677 37.7401 220.727 38.1889 220.827 38.5795 220.926 38.9701 221.072 39.3005 221.263 39.5706 221.458 39.8365 221.691 40.038 221.961 40.1752 222.231 40.3082 222.538 40.3746 222.883 40.3746 223.232 40.3746 223.542 40.3082 223.812 40.1752 224.082 40.038 224.311 39.8365 224.497 39.5706 224.685 39.3005 224.826 38.9701 224.922 38.5795 225.021 38.1889 225.071 37.7401 225.071 37.2332Z" fill="#58595B" fill-rule="nonzero" fill-opacity="1" transform="matrix(1 0 0 1.00093 67.7432 33)"/><path d="M214.692 38.1368 212.33 38.1368 212.33 36.8964 214.692 36.8964C215.104 36.8964 215.436 36.8299 215.689 36.697 215.943 36.564 216.128 36.3812 216.244 36.1484 216.365 35.9116 216.425 35.6415 216.425 35.3381 216.425 35.0514 216.365 34.7834 216.244 34.5341 216.128 34.2806 215.943 34.077 215.689 33.9232 215.436 33.7695 215.104 33.6926 214.692 33.6926L212.81 33.6926 212.81 41.5214 211.246 41.5214 211.246 32.446 214.692 32.446C215.395 32.446 215.991 32.5706 216.481 32.82 216.976 33.0651 217.352 33.4059 217.609 33.8422 217.867 34.2744 217.996 34.7689 217.996 35.3257 217.996 35.9116 217.867 36.4144 217.609 36.8341 217.352 37.2538 216.976 37.5758 216.481 37.8002 215.991 38.0246 215.395 38.1368 214.692 38.1368Z" fill="#58595B" fill-rule="nonzero" fill-opacity="1" transform="matrix(1 0 0 1.00093 67.7432 33)"/><path d="M209.363 32.446 209.363 41.5214 207.805 41.5214 207.805 33.6926 203.772 33.6926 203.772 41.5214 202.213 41.5214 202.213 32.446 209.363 32.446Z" fill="#58595B" fill-rule="nonzero" fill-opacity="1" transform="matrix(1 0 0 1.00093 67.7432 33)"/><path d="M262.002 23.1975 259.639 23.1975 259.639 21.9571 262.002 21.9571C262.413 21.9571 262.745 21.8906 262.999 21.7576 263.252 21.6246 263.437 21.4418 263.553 21.2091 263.674 20.9722 263.734 20.7022 263.734 20.3988 263.734 20.1121 263.674 19.844 263.553 19.5947 263.437 19.3413 263.252 19.1376 262.999 18.9839 262.745 18.8301 262.413 18.7533 262.002 18.7533L260.119 18.7533 260.119 26.5821 258.555 26.5821 258.555 17.5066 262.002 17.5066C262.704 17.5066 263.3 17.6313 263.79 17.8806 264.285 18.1258 264.661 18.4666 264.918 18.9028 265.176 19.335 265.305 19.8295 265.305 20.3863 265.305 20.9722 265.176 21.4751 264.918 21.8948 264.661 22.3144 264.285 22.6365 263.79 22.8609 263.3 23.0853 262.704 23.1975 262.002 23.1975Z" fill="#58595B" fill-rule="nonzero" fill-opacity="1" transform="matrix(1 0 0 1.00093 67.7432 33)"/><path d="M256.991 21.7952 256.991 22.2938C256.991 22.9794 256.902 23.5944 256.723 24.1388 256.544 24.6832 256.289 25.1465 255.956 25.5288 255.628 25.9111 255.234 26.204 254.772 26.4077 254.311 26.6071 253.8 26.7069 253.239 26.7069 252.682 26.7069 252.173 26.6071 251.711 26.4077 251.255 26.204 250.858 25.9111 250.521 25.5288 250.184 25.1465 249.923 24.6832 249.736 24.1388 249.553 23.5944 249.462 22.9794 249.462 22.2938L249.462 21.7952C249.462 21.1095 249.553 20.4966 249.736 19.9564 249.918 19.412 250.176 18.9487 250.509 18.5664 250.845 18.1799 251.242 17.887 251.699 17.6875 252.161 17.4839 252.669 17.3821 253.226 17.3821 253.787 17.3821 254.298 17.4839 254.759 17.6875 255.221 17.887 255.617 18.1799 255.95 18.5664 256.282 18.9487 256.538 19.412 256.717 19.9564 256.9 20.4966 256.991 21.1095 256.991 21.7952ZM255.427 22.2938 255.427 21.7827C255.427 21.2757 255.377 20.829 255.277 20.4425 255.181 20.052 255.038 19.7258 254.847 19.464 254.66 19.198 254.429 18.9986 254.155 18.8656 253.881 18.7284 253.571 18.6599 253.226 18.6599 252.882 18.6599 252.574 18.7284 252.304 18.8656 252.034 18.9986 251.803 19.198 251.612 19.464 251.425 19.7258 251.282 20.052 251.182 20.4425 251.082 20.829 251.032 21.2757 251.032 21.7827L251.032 22.2938C251.032 22.8008 251.082 23.2495 251.182 23.6401 251.282 24.0308 251.427 24.3611 251.618 24.6312 251.814 24.8971 252.046 25.0987 252.316 25.2358 252.586 25.3688 252.894 25.4353 253.239 25.4353 253.588 25.4353 253.897 25.3688 254.167 25.2358 254.437 25.0987 254.666 24.8971 254.853 24.6312 255.04 24.3611 255.181 24.0308 255.277 23.6401 255.377 23.2495 255.427 22.8008 255.427 22.2938Z" fill="#58595B" fill-rule="nonzero" fill-opacity="1" transform="matrix(1 0 0 1.00093 67.7432 33)"/><path d="M245.883 17.5066 245.883 26.5821 244.331 26.5821 244.331 17.5066 245.883 17.5066ZM248.731 17.5066 248.731 18.7533 241.507 18.7533 241.507 17.5066 248.731 17.5066Z" fill="#58595B" fill-rule="nonzero" fill-opacity="1" transform="matrix(1 0 0 1.00093 67.7432 33)"/><path d="M238.005 18.7159 235.293 26.5821 233.654 26.5821 237.069 17.5066 238.117 17.5066 238.005 18.7159ZM240.274 26.5821 237.556 18.7159 237.437 17.5066 238.491 17.5066 241.919 26.5821 240.274 26.5821ZM240.142 23.2162 240.142 24.4566 235.206 24.4566 235.206 23.2162 240.142 23.2162Z" fill="#58595B" fill-rule="nonzero" fill-opacity="1" transform="matrix(1 0 0 1.00093 67.7432 33)"/><path d="M230.711 23.1975 228.349 23.1975 228.349 21.9571 230.711 21.9571C231.123 21.9571 231.456 21.8906 231.709 21.7576 231.962 21.6246 232.147 21.4418 232.263 21.2091 232.384 20.9722 232.444 20.7022 232.444 20.3988 232.444 20.1121 232.384 19.844 232.263 19.5947 232.147 19.3413 231.962 19.1376 231.709 18.9839 231.456 18.8301 231.123 18.7533 230.711 18.7533L228.829 18.7533 228.829 26.5821 227.264 26.5821 227.264 17.5066 230.711 17.5066C231.414 17.5066 232.01 17.6313 232.5 17.8806 232.995 18.1258 233.371 18.4666 233.628 18.9028 233.886 19.335 234.015 19.8295 234.015 20.3863 234.015 20.9722 233.886 21.4751 233.628 21.8948 233.371 22.3144 232.995 22.6365 232.5 22.8609 232.01 23.0853 231.414 23.1975 230.711 23.1975Z" fill="#58595B" fill-rule="nonzero" fill-opacity="1" transform="matrix(1 0 0 1.00093 67.7432 33)"/><path d="M225.987 25.3417 225.987 26.5821 221.169 26.5821 221.169 25.3417 225.987 25.3417ZM221.612 17.5066 221.612 26.5821 220.047 26.5821 220.047 17.5066 221.612 17.5066ZM225.358 21.2964 225.358 22.5181 221.169 22.5181 221.169 21.2964 225.358 21.2964ZM225.956 17.5066 225.956 18.7533 221.169 18.7533 221.169 17.5066 225.956 17.5066Z" fill="#58595B" fill-rule="nonzero" fill-opacity="1" transform="matrix(1 0 0 1.00093 67.7432 33)"/><path d="M218.164 17.5066 218.164 26.5821 216.606 26.5821 216.606 18.7533 212.573 18.7533 212.573 26.5821 211.015 26.5821 211.015 17.5066 218.164 17.5066Z" fill="#58595B" fill-rule="nonzero" fill-opacity="1" transform="matrix(1 0 0 1.00093 67.7432 33)"/><path d="M209.42 21.7952 209.42 22.2938C209.42 22.9794 209.33 23.5944 209.151 24.1388 208.973 24.6832 208.717 25.1465 208.385 25.5288 208.056 25.9111 207.662 26.204 207.201 26.4077 206.739 26.6071 206.228 26.7069 205.667 26.7069 205.11 26.7069 204.601 26.6071 204.14 26.4077 203.683 26.204 203.286 25.9111 202.949 25.5288 202.613 25.1465 202.351 24.6832 202.164 24.1388 201.981 23.5944 201.89 22.9794 201.89 22.2938L201.89 21.7952C201.89 21.1095 201.981 20.4966 202.164 19.9564 202.347 19.412 202.605 18.9487 202.937 18.5664 203.274 18.1799 203.67 17.887 204.128 17.6875 204.589 17.4839 205.098 17.3821 205.655 17.3821 206.215 17.3821 206.726 17.4839 207.188 17.6875 207.649 17.887 208.046 18.1799 208.378 18.5664 208.711 18.9487 208.966 19.412 209.145 19.9564 209.328 20.4966 209.42 21.1095 209.42 21.7952ZM207.855 22.2938 207.855 21.7827C207.855 21.2757 207.805 20.829 207.705 20.4425 207.61 20.052 207.466 19.7258 207.275 19.464 207.088 19.198 206.858 18.9986 206.583 18.8656 206.309 18.7284 206 18.6599 205.655 18.6599 205.31 18.6599 205.002 18.7284 204.732 18.8656 204.462 18.9986 204.231 19.198 204.04 19.464 203.853 19.7258 203.71 20.052 203.61 20.4425 203.51 20.829 203.46 21.2757 203.46 21.7827L203.46 22.2938C203.46 22.8008 203.51 23.2495 203.61 23.6401 203.71 24.0308 203.855 24.3611 204.047 24.6312 204.242 24.8971 204.474 25.0987 204.744 25.2358 205.015 25.3688 205.322 25.4353 205.667 25.4353 206.016 25.4353 206.326 25.3688 206.596 25.2358 206.866 25.0987 207.094 24.8971 207.281 24.6312 207.468 24.3611 207.61 24.0308 207.705 23.6401 207.805 23.2495 207.855 22.8008 207.855 22.2938Z" fill="#58595B" fill-rule="nonzero" fill-opacity="1" transform="matrix(1 0 0 1.00093 67.7432 33)"/><path d="M92.8281 20.5462C93.9485 19.292 94.3065 17.1402 94.3065 15.8861 94.3065 13.8682 93.769 12.5235 91.7532 12.5235 89.8712 12.5235 88.9735 13.9587 88.9735 17.9021L81.9823 17.9021C81.9823 11.9426 84.8507 6.83181 92.0661 6.83181 97.4883 6.83181 101.432 10.0586 101.432 15.6164 101.432 19.8295 99.9095 22.3378 97.9369 24.6687 96.1433 26.8205 90.7216 30.7188 90.4087 33.2289L101.971 33.2289 101.971 39.0092 81.9823 39.0092C81.9823 29.1949 89.4672 24.3104 92.8281 20.5462Z" fill="#EA1D24" fill-rule="nonzero" fill-opacity="1" transform="matrix(1 0 0 1.00093 67.7432 33)"/><path d="M111.089 15.3486 111.089 30.4924C111.089 32.5556 111.439 33.6984 113.371 33.6984 115.39 33.6984 116.005 32.5556 116.005 30.4924L116.005 15.3486C116.005 13.2854 115.39 12.1444 113.371 12.1444 111.439 12.1444 111.089 13.2854 111.089 15.3486ZM113.459 6.83181C121.141 6.83181 122.985 11.0902 122.985 15.4806L122.985 30.317C122.985 34.7074 121.141 39.0092 113.459 39.0092 106.172 39.0092 104.109 34.7508 104.109 30.317L104.109 15.4806C104.109 11.0468 106.172 6.83181 113.459 6.83181Z" fill="#EA1D24" fill-rule="nonzero" fill-opacity="1" transform="matrix(1 0 0 1.00093 67.7432 33)"/><path d="M138.693 16.8403 138.693 15.9615C138.693 11.177 141.458 6.83181 148.087 6.83181 153.4 6.83181 156.998 9.99259 156.998 14.6885 156.998 17.6739 156.296 20.3519 152.61 21.3628 156.998 23.0733 157.658 25.4872 157.658 29.7022 157.658 36.2878 154.015 39.0092 148 39.0092 142.601 39.0092 138.693 36.0238 138.693 29.1761L138.693 27.639 145.365 27.639 145.365 28.8253C145.365 31.194 146.024 33.3458 148 33.3458 150.064 33.3458 150.678 32.0728 150.678 28.6932 150.678 25.4005 149.535 24.5669 146.199 24.5669L144.664 24.5669 144.664 19.6051 145.717 19.6051C149.098 19.6051 150.325 18.9469 150.325 15.4353 150.325 13.7682 149.667 12.1425 147.955 12.1425 146.377 12.1425 145.365 13.3288 145.365 15.1713L145.365 16.8403 138.693 16.8403Z" fill="#EA1D24" fill-rule="nonzero" fill-opacity="1" transform="matrix(1 0 0 1.00093 67.7432 33)"/><path d="M166.374 19.1883C167.53 17.855 168.863 16.6989 171.839 16.6989 176.551 16.6989 178.995 20.2991 178.995 27.2317 178.995 36.2539 175.708 39.0092 169.706 39.0092 163.042 39.0092 160.241 36.0313 160.241 28.7423L166.951 28.7423C166.997 32.5198 167.751 33.6759 169.486 33.6759 171.219 33.6759 171.93 32.5198 171.93 27.4976 171.93 23.2317 171.219 21.9889 169.395 21.9889 167.796 21.9889 167.219 22.9658 166.951 24.2991L160.598 24.2991 161.486 7.09962 177.84 7.09962 177.84 12.433 166.951 12.433 166.374 19.1883Z" fill="#EA1D24" fill-rule="nonzero" fill-opacity="1" transform="matrix(1 0 0 1.00093 67.7432 33)"/><path d="M128.177 38.3491 133.84 38.3491 133.84 32.6858 128.177 32.6858 128.177 38.3491Z" fill="#EA1D24" fill-rule="nonzero" fill-opacity="1" transform="matrix(1 0 0 1.00093 67.7432 33)"/><path d="M86.6644 50.5384C86.3191 51.4325 85.9853 52.2077 85.6514 52.9505 85.1782 53.9748 84.5747 54.848 83.3245 54.848L83.0886 54.848C82.8303 54.848 82.604 54.6535 82.604 54.3838 82.604 54.1142 82.8189 53.9202 83.0772 53.9202L83.2489 53.9202C83.8956 53.9202 84.2409 53.5863 84.618 52.9414L82.236 47.5324C82.2041 47.4477 82.1831 47.3607 82.1831 47.2855 82.1831 47.0268 82.3872 46.8119 82.6682 46.8119 82.8941 46.8119 83.0225 46.9194 83.0981 47.1138L85.114 51.8306C85.4364 51.0986 85.7817 50.1823 86.0609 49.4298 86.3077 48.7394 86.6206 47.8248 86.8265 47.1553 86.9016 46.9307 87.0847 46.8119 87.2997 46.8119 87.6017 46.8119 87.7638 46.9836 87.7638 47.2418 87.7638 47.3402 87.7411 47.4363 87.7092 47.5438 87.3316 48.6751 86.9868 49.6653 86.6644 50.5384Z" fill="#2C2E35" fill-rule="nonzero" fill-opacity="1" transform="matrix(1 0 0 1.00093 67.7432 33)"/><path d="M95.6482 47.2855C95.6482 47.0159 95.8746 46.8005 96.1442 46.8005 96.4029 46.8005 96.6293 47.0159 96.6293 47.2855L96.6293 54.3633C96.6293 54.6312 96.4029 54.848 96.1442 54.848 95.8746 54.848 95.6482 54.6312 95.6482 54.3633L95.6482 51.3364 92.0934 51.3364 92.0934 54.3633C92.0934 54.6312 91.867 54.848 91.6088 54.848 91.3506 54.848 91.1356 54.6312 91.1356 54.3633L91.1356 47.2855C91.1356 47.0159 91.3506 46.8005 91.6088 46.8005 91.867 46.8005 92.0934 47.0159 92.0934 47.2855L92.0934 50.4519 95.6482 50.4519 95.6482 47.2855Z" fill="#2C2E35" fill-rule="nonzero" fill-opacity="1" transform="matrix(1 0 0 1.00093 67.7432 33)"/><path d="M101.831 54.352C101.831 54.6216 101.616 54.848 101.346 54.848 101.088 54.848 100.873 54.6216 100.873 54.352L100.873 47.2742C100.873 47.0159 101.088 46.7896 101.346 46.7896 101.616 46.7896 101.831 47.0159 101.831 47.2742L101.831 52.3379 105.526 47.9528 105.526 47.2742C105.526 47.0159 105.741 46.7896 106.01 46.7896 106.269 46.7896 106.495 47.0159 106.495 47.2742L106.495 54.352C106.495 54.6216 106.269 54.848 106.01 54.848 105.741 54.848 105.526 54.6216 105.526 54.352L105.526 49.2996 101.831 53.6729 101.831 54.352Z" fill="#2C2E35" fill-rule="nonzero" fill-opacity="1" transform="matrix(1 0 0 1.00093 67.7432 33)"/><path d="M115.05 52.3917C115.05 51.6598 114.446 51.228 113.433 51.228L111.721 51.228 111.721 53.8455 113.596 53.8455C114.727 53.8455 115.05 53.3404 115.05 52.6499L115.05 52.3917ZM114.716 48.9348C114.716 48.288 114.339 47.8143 113.369 47.8143L111.721 47.8143 111.721 50.3549 112.896 50.3549C113.984 50.3549 114.716 50.0871 114.716 49.2458L114.716 48.9348ZM113.607 54.7509 111.236 54.7509C110.967 54.7509 110.752 54.536 110.752 54.2663L110.752 47.3826C110.752 47.1243 110.967 46.898 111.236 46.898L113.381 46.898C115.038 46.898 115.685 47.792 115.685 48.8254L115.685 49.1497C115.685 49.9249 115.308 50.4414 114.661 50.7115 115.502 50.9697 116.008 51.6051 116.008 52.4445L116.008 52.7369C116.008 53.9002 115.395 54.7509 113.607 54.7509Z" fill="#2C2E35" fill-rule="nonzero" fill-opacity="1" transform="matrix(1 0 0 1.00093 67.7432 33)"/><path d="M124.217 54.7509 120.467 54.7509C120.209 54.7509 120.005 54.5474 120.005 54.2868L120.005 47.3621C120.005 47.1129 120.209 46.898 120.467 46.898L124.054 46.898C124.313 46.898 124.53 47.1129 124.53 47.3621 124.53 47.6203 124.313 47.8239 124.054 47.8239L120.975 47.8239 120.975 50.3776 123.775 50.3776C124.022 50.3776 124.228 50.5831 124.228 50.8299 124.228 51.0772 124.022 51.2826 123.775 51.2826L120.975 51.2826 120.975 53.825 124.217 53.825C124.464 53.825 124.669 54.0286 124.669 54.2868 124.669 54.5474 124.464 54.7509 124.217 54.7509Z" fill="#2C2E35" fill-rule="nonzero" fill-opacity="1" transform="matrix(1 0 0 1.00093 67.7432 33)"/><path d="M132.716 49.0318C132.716 48.4716 132.371 47.8152 131.132 47.8152L129.625 47.8152 129.625 50.7557 131.273 50.7557C132.286 50.7557 132.716 50.1955 132.716 49.5483L132.716 49.0318ZM131.305 51.6379 129.625 51.6379 129.625 54.3633C129.625 54.633 129.408 54.848 129.14 54.848 128.871 54.848 128.656 54.633 128.656 54.3633L128.656 47.3835C128.656 47.1252 128.871 46.8989 129.14 46.8989L131.198 46.8989C133.039 46.8989 133.674 47.9983 133.674 49.0204L133.674 49.571C133.674 50.7876 132.803 51.6379 131.305 51.6379Z" fill="#2C2E35" fill-rule="nonzero" fill-opacity="1" transform="matrix(1 0 0 1.00093 67.7432 33)"/><path d="M140.115 47.685C138.864 47.685 138.295 48.5358 138.295 50.216L138.295 51.4439C138.295 53.1997 138.823 53.9653 140.05 53.9653 140.481 53.9653 140.912 53.8578 141.255 53.5882 141.44 53.4597 141.525 53.3732 141.688 53.3732 141.935 53.3618 142.097 53.5672 142.097 53.7936 142.097 53.922 142.042 54.0409 141.925 54.1593 141.429 54.6762 140.654 54.848 140.05 54.848 138.057 54.848 137.314 53.4807 137.314 51.4553L137.314 50.1955C137.314 48.2566 138.078 46.8028 140.115 46.8028 140.762 46.8028 141.473 46.9854 141.914 47.4477 142.042 47.5666 142.097 47.685 142.097 47.8152 142.097 48.0079 141.935 48.2452 141.633 48.2452 141.482 48.2566 141.407 48.1587 141.235 48.0302 140.944 47.7925 140.567 47.685 140.115 47.685Z" fill="#2C2E35" fill-rule="nonzero" fill-opacity="1" transform="matrix(1 0 0 1.00093 67.7432 33)"/><path d="M147.139 54.352C147.139 54.6216 146.924 54.848 146.654 54.848 146.395 54.848 146.18 54.6216 146.18 54.352L146.18 47.2742C146.18 47.0159 146.395 46.7896 146.654 46.7896 146.924 46.7896 147.139 47.0159 147.139 47.2742L147.139 52.3379 150.833 47.9528 150.833 47.2742C150.833 47.0159 151.048 46.7896 151.317 46.7896 151.576 46.7896 151.802 47.0159 151.802 47.2742L151.802 54.352C151.802 54.6216 151.576 54.848 151.317 54.848 151.048 54.848 150.833 54.6216 150.833 54.352L150.833 49.2996 147.139 53.6729 147.139 54.352Z" fill="#2C2E35" fill-rule="nonzero" fill-opacity="1" transform="matrix(1 0 0 1.00093 67.7432 33)"/><path d="M158.729 47.8248 158.729 54.3633C158.729 54.633 158.514 54.848 158.255 54.848 157.997 54.848 157.771 54.633 157.771 54.3633L157.771 47.8248 155.734 47.8248C155.464 47.8248 155.261 47.6303 155.261 47.3721 155.261 47.1025 155.464 46.9084 155.734 46.9084L160.775 46.9084C161.033 46.9084 161.239 47.1025 161.239 47.3721 161.239 47.6303 161.033 47.8248 160.775 47.8248L158.729 47.8248Z" fill="#2C2E35" fill-rule="nonzero" fill-opacity="1" transform="matrix(1 0 0 1.00093 67.7432 33)"/><path d="M168.909 54.7509 165.16 54.7509C164.902 54.7509 164.698 54.5474 164.698 54.2868L164.698 47.3621C164.698 47.1129 164.902 46.898 165.16 46.898L168.747 46.898C169.006 46.898 169.222 47.1129 169.222 47.3621 169.222 47.6203 169.006 47.8239 168.747 47.8239L165.667 47.8239 165.667 50.3776 168.468 50.3776C168.715 50.3776 168.92 50.5831 168.92 50.8299 168.92 51.0772 168.715 51.2826 168.468 51.2826L165.667 51.2826 165.667 53.825 168.909 53.825C169.156 53.825 169.362 54.0286 169.362 54.2868 169.362 54.5474 169.156 54.7509 168.909 54.7509Z" fill="#2C2E35" fill-rule="nonzero" fill-opacity="1" transform="matrix(1 0 0 1.00093 67.7432 33)"/><path d="M175.803 47.8248 175.803 54.3633C175.803 54.633 175.588 54.848 175.329 54.848 175.071 54.848 174.844 54.633 174.844 54.3633L174.844 47.8248 172.808 47.8248C172.538 47.8248 172.334 47.6303 172.334 47.3721 172.334 47.1025 172.538 46.9084 172.808 46.9084L177.849 46.9084C178.107 46.9084 178.313 47.1025 178.313 47.3721 178.313 47.6303 178.107 47.8248 177.849 47.8248L175.803 47.8248Z" fill="#2C2E35" fill-rule="nonzero" fill-opacity="1" transform="matrix(1 0 0 1.00093 67.7432 33)"/></g></g></g></g></g></svg>