<?xml version="1.0" encoding="utf-8"?>
<!-- Generator: Adobe Illustrator 27.6.1, SVG Export Plug-In . SVG Version: 6.00 Build 0)  -->
<svg version="1.1" id="Layer_1" xmlns="http://www.w3.org/2000/svg" xmlns:xlink="http://www.w3.org/1999/xlink" x="0px" y="0px"
	 viewBox="0 0 318.03 294" style="enable-background:new 0 0 318.03 294;" xml:space="preserve">
<style type="text/css">
	.st0{fill:#092544;}
	.st1{fill:#80B941;}
	.st2{fill:#FFFFFF;}
	.st3{fill:#00853F;}
	.st4{display:none;}
	.st5{display:inline;fill-rule:evenodd;clip-rule:evenodd;fill:#00853F;}
	.st6{display:inline;fill-rule:evenodd;clip-rule:evenodd;fill:#FFFFFF;}
	.st7{display:inline;}
	.st8{fill-rule:evenodd;clip-rule:evenodd;fill:#FFFFFF;}
	.st9{fill:#231F20;}
</style>
<g>
	<g>
		<g>
			<ellipse class="st2" cx="159.02" cy="147.21" rx="139.95" ry="135.52"/>
			<g>
				<path class="st3" d="M147.01,51.08c0.51-0.07,0.98-0.2,1.48-0.3c0.25-0.59,0.51-1.17,0.76-1.78c0-0.01-0.01-0.02-0.01-0.04
					c-0.55-1.43-1.09-2.79-1.65-4.12c-0.49,0.04-0.98,0.03-1.48,0.1c-3.02,0.45-5.67,1.36-7.65,2.62c-0.27,0.17-0.42,0.85-0.25,1.72
					c0,0.02,0.01,0.04,0.01,0.07c0.25,1.12,0.86,1.78,1.12,1.82C141.88,51.48,144.54,51.45,147.01,51.08z"/>
				<path class="st3" d="M144.94,39.79c-1.35-2.02-3.01-3.59-5.21-4.5c-0.3,0.09-0.6,0.13-0.9,0.23c-0.72,0.26-1.41,0.55-2.07,0.84
					c-0.26,1.29-0.08,3.61,0.27,6.12c1.32-0.31,2.74-0.7,4.33-1.22C142.73,40.75,143.88,40.27,144.94,39.79z"/>
				<path class="st3" d="M144.02,56.03c-1.71-0.06-3.19,0.17-4.46,0.49c0.32,2.02,0.49,3.75,0.44,5.21
					c0.06,0.01,0.11,0.03,0.17,0.04c2.29-1.17,4.07-3.12,5.57-5.56C145.16,56.15,144.58,56.02,144.02,56.03z"/>
				<path class="st3" d="M128.53,46.9c2.33,0.05,4.47,0.64,6.11,1.6c-0.14-0.71-0.27-1.42-0.39-2.12c-0.1-0.57-0.19-1.13-0.28-1.69
					c-0.09-0.56-0.18-1.12-0.26-1.65c-0.25-1.77-0.35-3.37-0.34-4.82c0-0.4-0.03-0.85,0-1.22c-1.03,0.45-1.97,0.89-2.91,1.33
					c-0.93,0.43-1.84,0.88-2.7,1.31c-0.03,0.01-0.06,0.03-0.08,0.04l-0.01,0.06c-0.29,1.6-1.19,3.34-2.59,5.09
					c0.12,0.71,0.26,1.44,0.44,2.21C126.53,46.92,127.54,46.87,128.53,46.9z"/>
				<path class="st3" d="M135.76,54.28c-0.12-0.63-0.24-1.25-0.36-1.86c-0.8,1.32-2.03,2.64-3.73,3.98
					c-0.89,0.69-1.9,1.34-2.97,1.97c0.1,0.39,0.17,0.75,0.25,1.12c0.03,0.01,0.08,0.01,0.11,0.02l0.07,0.01
					c1.86,0.43,3.43,1.13,4.67,2.03c0.54,0.39,1.05,0.82,1.45,1.29l0.05,0.05c0.44-0.01,0.9-0.05,1.33-0.05
					c0.02,0,0.03-0.01,0.05-0.01c0.02-0.05,0.03-0.17,0.04-0.24c0.23-1.02-0.13-3.71-0.65-6.6
					C135.98,55.43,135.87,54.86,135.76,54.28z"/>
				<path class="st3" d="M114.92,49.37c2.95-2.01,5.03-3.74,6.51-5.44c0.02-0.02,0.04-0.05,0.06-0.07c0.71-0.76,1.26-1.5,1.72-2.21
					c0.23-0.35,0.48-0.71,0.64-1.05c-0.11-0.02-0.24,0-0.35-0.01c-0.56-0.06-1.15-0.11-1.78-0.07c-0.76,0.04-1.56,0.14-2.37,0.32
					c-2.7,0.54-5.67,1.81-8.37,3.58c-0.63,0.43-1.21,0.87-1.77,1.32c0.08,1.31,0.86,3.53,1.85,5.88
					C112.3,50.97,113.59,50.23,114.92,49.37z"/>
				<path class="st3" d="M120.45,51.79c-2.77,1.15-5.1,2.67-6.72,4.4c-0.21,0.21-0.18,0.89,0.18,1.64c0.01,0.02,0.02,0.05,0.03,0.07
					c0.53,1.07,1.28,1.55,1.62,1.56c2.49-0.31,5.05-0.99,7.38-1.96c0.65-0.26,1.21-0.58,1.82-0.87c0.51-0.24,1.05-0.47,1.53-0.73
					c0.53-0.29,0.99-0.61,1.48-0.92c0.63-0.4,1.3-0.79,1.84-1.21c1.21-0.95,2.12-1.87,2.72-2.74c-1.07-0.47-2.43-0.75-3.87-0.78
					h-0.02c-0.16-0.01-0.33-0.01-0.5-0.01c-0.49,0-1.02,0.12-1.53,0.16c-0.57,0.05-1.12,0.08-1.7,0.18
					c-0.54,0.1-1.08,0.26-1.63,0.41C122.19,51.23,121.31,51.45,120.45,51.79z"/>
				<path class="st3" d="M129.41,63.12c-0.33-0.11-0.63-0.23-0.99-0.32c-0.21-0.04-0.47-0.07-0.7-0.1c-0.5-0.07-1.04-0.12-1.65-0.15
					c-0.25-0.01-0.48-0.04-0.75-0.04c-1.23,0-2.61,0.13-4.07,0.51c-1.48,0.34-2.85,0.92-4.14,1.61c0.41,0.93,0.76,1.8,1.06,2.63
					c0.1,0.28,0.2,0.56,0.29,0.83c0.16,0.49,0.28,0.96,0.39,1.4c1.49-0.09,2.94-0.26,4.27-0.6c2.03-0.46,3.87-1.2,5.48-2.1
					c0.22-0.12,0.49-0.22,0.7-0.35c0.84-0.54,1.47-1.08,2-1.61c0.19-0.19,0.41-0.38,0.56-0.57c-0.53-0.38-1.22-0.7-1.97-0.98
					C129.74,63.22,129.57,63.17,129.41,63.12z"/>
				<path class="st3" d="M101.08,58.81c0.98-0.38,1.94-0.67,2.89-0.87c2.23-0.54,4.45-0.49,6.29,0.05
					c-0.32-0.66-0.62-1.31-0.92-1.94c-0.25-0.53-0.47-1.04-0.7-1.56c-0.23-0.51-0.47-1.04-0.68-1.53c-0.7-1.66-1.21-3.18-1.57-4.58
					c-0.1-0.39-0.25-0.82-0.32-1.19c-0.85,0.66-1.61,1.28-2.39,1.92c-0.81,0.66-1.6,1.32-2.34,1.97c-0.02,0.02-0.04,0.03-0.06,0.05
					l0.01,0.07c0.12,1.59-0.29,3.42-1.22,5.54C100.36,57.41,100.7,58.1,101.08,58.81z"/>
				<path class="st3" d="M113.58,64.93c-0.24-0.53-0.49-1.05-0.74-1.58c-0.28-0.59-0.56-1.17-0.83-1.74
					c-0.42,1.41-1.24,2.93-2.57,4.75c-0.73,0.92-1.6,1.73-2.44,2.56c0.21,0.39,0.39,0.76,0.58,1.13c0.05,0,0.11-0.01,0.17-0.02h0
					c1.93-0.04,3.65,0.37,5.18,1.01c0.54,0.23,1.14,0.38,1.6,0.69l0.09,0.06c0.43-0.12,0.88-0.27,1.31-0.38
					c0.01-0.06-0.02-0.17-0.02-0.25C115.86,70.12,114.82,67.61,113.58,64.93z"/>
				<path class="st3" d="M91.97,70.49c-0.13,0.22-0.01,0.82,0.57,1.53c0.01,0.02,0.03,0.03,0.04,0.05c0.8,0.94,1.73,1.26,2.01,1.17
					c2.29-0.86,4.59-2.14,6.64-3.68c0.54-0.38,1.03-0.84,1.54-1.26c0.44-0.36,0.9-0.69,1.31-1.07c0.43-0.4,0.8-0.84,1.2-1.26
					c0.51-0.54,1.05-1.05,1.5-1.62c0.93-1.29,1.56-2.38,1.91-3.32c-0.46-0.08-0.94-0.12-1.46-0.12c-0.8,0-1.66,0.1-2.51,0.31
					l-0.06,0.01c-0.62,0.13-1.27,0.32-1.92,0.55c-0.52,0.18-1.05,0.4-1.58,0.64c-0.5,0.23-0.99,0.5-1.49,0.77
					c-0.78,0.44-1.56,0.91-2.33,1.45C95.02,66.38,93.1,68.46,91.97,70.49z"/>
				<path class="st3" d="M91.4,63.62c2.15-2.37,3.81-4.68,4.95-6.85c0.01-0.02,0.01-0.03,0.02-0.05c0.49-0.95,0.83-1.79,1.1-2.57
					c0.14-0.41,0.29-0.83,0.36-1.19c-0.11,0.01-0.24,0.06-0.35,0.07c-0.56,0.07-1.14,0.17-1.74,0.35c-0.73,0.22-1.48,0.52-2.2,0.89
					c-2.44,1.14-4.98,3.08-7.21,5.49c-0.49,0.55-0.95,1.11-1.38,1.69c0.42,1.24,1.76,3.23,3.31,5.27
					C89.35,65.75,90.42,64.72,91.4,63.62z"/>
				<path class="st3" d="M108.94,73.45c-0.35-0.02-0.69-0.07-1.06-0.06c-0.22,0.01-0.46,0.09-0.68,0.11
					c-0.54,0.05-1.08,0.16-1.63,0.27c-1.57,0.32-3.14,0.79-4.6,1.56c-1.36,0.72-2.57,1.59-3.6,2.51c0.63,0.79,1.18,1.54,1.67,2.26
					c0.18,0.27,0.35,0.53,0.51,0.78c0.29,0.45,0.53,0.89,0.75,1.31c1.37-0.43,2.74-0.95,4.03-1.64c1.84-0.92,3.42-2.07,4.82-3.38
					c0.18-0.17,0.39-0.3,0.56-0.47c0.66-0.73,1.13-1.4,1.51-2.05c0.13-0.23,0.3-0.46,0.39-0.68c-0.63-0.25-1.36-0.4-2.14-0.49
					C109.3,73.45,109.12,73.46,108.94,73.45z"/>
				<path class="st3" d="M78.88,74.31c0.46,0.58,0.97,1.17,1.52,1.78c0.85-0.6,1.72-1.12,2.6-1.53c2.1-1.07,4.19-1.55,6.05-1.47
					c-0.47-0.55-0.92-1.11-1.37-1.65c-0.37-0.45-0.72-0.89-1.07-1.33c-0.35-0.44-0.72-0.89-1.04-1.31c-1.11-1.45-1.99-2.8-2.69-4.08
					c-0.2-0.36-0.46-0.75-0.61-1.09c-0.68,0.87-1.27,1.78-1.91,2.66c-0.57,0.77-1.13,1.54-1.67,2.32c-0.01,0.01-0.02,0.02-0.03,0.03
					l0,0.01C79.18,70.14,79.24,71.98,78.88,74.31z"/>
				<path class="st3" d="M96.44,82.09L96.44,82.09c-0.68-0.93-1.51-1.97-2.39-3.05c-0.37-0.45-0.74-0.9-1.12-1.35
					c-0.47-0.56-0.93-1.1-1.37-1.63c-0.03,1.59-0.34,3.34-1.18,5.36c-0.47,1.05-1.1,2.04-1.69,3.05c0.31,0.33,0.58,0.65,0.86,0.98
					c0.06-0.02,0.11-0.04,0.17-0.06c1.7-0.51,3.43-0.64,5-0.43c0.71,0.09,1.39,0.23,2.02,0.47l0.1,0.04
					c0.39-0.23,0.77-0.5,1.16-0.72c-0.01-0.06-0.06-0.16-0.08-0.23C97.74,83.99,97.21,83.14,96.44,82.09z"/>
				<path class="st3" d="M75.56,91c0.03,0.02,0.06,0.05,0.1,0.07c0.96,0.64,1.88,0.73,2.08,0.57c1.86-1.23,3.72-2.96,5.57-5.17
					c0.41-0.49,0.76-1.04,1.14-1.56c0.33-0.46,0.69-0.89,1-1.37c0.32-0.5,0.56-1.01,0.84-1.52c0.35-0.64,0.74-1.27,1.03-1.92
					c0.57-1.37,0.92-2.62,1.01-3.68c-1.15,0.07-2.49,0.46-3.82,1.15l-0.04,0.02c-0.56,0.27-1.13,0.6-1.7,0.97
					c-0.46,0.3-0.92,0.64-1.38,1.01c-0.43,0.34-0.84,0.72-1.25,1.12c-0.64,0.61-1.27,1.25-1.86,1.95c-1.76,2.1-3.09,4.58-3.77,6.98
					C74.44,89.81,74.75,90.42,75.56,91z"/>
				<path class="st3" d="M69.98,86.83c0.81-1.18,1.57-2.43,2.24-3.73c1.38-2.53,2.45-5.23,3.1-7.84c0-0.01,0-0.02,0.01-0.03
					c0.23-1.07,0.34-1.97,0.4-2.8c0.03-0.43,0.07-0.87,0.05-1.24c-0.1,0.04-0.21,0.11-0.32,0.15c-0.52,0.2-1.05,0.44-1.6,0.77
					c-0.64,0.39-1.3,0.86-1.94,1.4c-2.09,1.7-4.06,4.18-5.56,7.03l-0.01,0.01c-0.35,0.65-0.57,1.35-0.85,2.04
					C66.25,83.7,68,85.25,69.98,86.83z"/>
				<path class="st3" d="M92.11,88.37c-0.13,0.02-0.25,0.03-0.38,0.06c-0.36,0.07-0.7,0.05-1.06,0.16l-0.04,0.01
					c-0.2,0.05-0.4,0.19-0.6,0.25c-0.5,0.17-1.01,0.4-1.53,0.65c-1.38,0.66-2.77,1.48-4.11,2.64c-1.1,1.02-2.03,2.13-2.79,3.25
					c0.82,0.63,1.56,1.24,2.23,1.83c0.25,0.22,0.49,0.44,0.71,0.65c0.38,0.36,0.71,0.71,1.02,1.05c1.16-0.71,2.33-1.53,3.52-2.56
					c1.49-1.32,2.73-2.82,3.76-4.43c0.13-0.2,0.3-0.39,0.42-0.6c0.45-0.82,0.74-1.61,0.94-2.35c0.07-0.25,0.16-0.51,0.2-0.74
					c-0.34-0.05-0.69-0.07-1.06-0.07C92.96,88.18,92.53,88.31,92.11,88.37z"/>
				<path class="st3" d="M64.74,97.81c0.66-0.76,1.37-1.47,2.11-2.11l0.01-0.01c1.84-1.55,3.7-2.5,5.46-2.88
					c-0.59-0.43-1.17-0.85-1.74-1.27c-0.47-0.35-0.91-0.69-1.36-1.03c-0.45-0.34-0.91-0.68-1.33-1.01
					c-1.41-1.12-2.58-2.19-3.57-3.24c-0.31-0.33-0.69-0.67-0.95-1c-0.38,0.88-0.76,1.82-1.14,2.77c-0.36,0.9-0.73,1.87-1.1,2.85
					c-0.01,0.02-0.01,0.03-0.02,0.05l0.06,0.09c0.86,1.35,1.39,3.18,1.62,5.42C63.4,96.89,64.05,97.35,64.74,97.81z"/>
				<path class="st3" d="M81.86,99.83c-0.01-0.01-0.02-0.02-0.03-0.03c-0.9-0.74-1.98-1.57-3.12-2.41
					c-0.47-0.35-0.94-0.69-1.41-1.03c-0.6-0.43-1.18-0.85-1.75-1.26c0.38,1.63,0.52,3.47,0.2,5.49c-0.16,1.06-0.45,2.2-0.8,3.37
					c0.37,0.24,0.7,0.48,1.04,0.71c0.05-0.03,0.1-0.07,0.16-0.1c1.56-0.9,3.11-1.43,4.61-1.61c0.75-0.09,1.48-0.13,2.19-0.04
					l0.06,0.01c0.32-0.32,0.67-0.67,0.96-0.97c-0.02-0.05-0.1-0.14-0.14-0.21C83.53,101.3,82.83,100.63,81.86,99.83z"/>
				<path class="st3" d="M171.67,44.98c-0.49-0.07-0.98-0.03-1.48-0.07c-0.55,1.31-1.09,2.66-1.63,4.08c0,0.01-0.01,0.02-0.01,0.03
					c0.25,0.61,0.51,1.2,0.76,1.79c0.49,0.09,0.95,0.22,1.46,0.29c2.49,0.38,5.15,0.41,7.71,0.11c0.23-0.03,0.86-0.7,1.1-1.83
					c0,0,0-0.01,0-0.01c0.19-0.89,0.03-1.59-0.24-1.76C177.37,46.34,174.72,45.44,171.67,44.98z"/>
				<path class="st3" d="M173.78,56.04c-0.63-0.01-1.21,0.03-1.78,0.09c1.51,2.48,3.32,4.47,5.64,5.66
					c0.06-0.01,0.11-0.02,0.16-0.03c-0.05-1.44,0.11-3.15,0.43-5.14c-1.44-0.36-2.91-0.6-4.38-0.58H173.78z"/>
				<path class="st3" d="M181.01,36.39c-0.66-0.3-1.35-0.59-2.07-0.85c-0.29-0.1-0.59-0.13-0.88-0.22c-2.21,0.9-3.87,2.47-5.22,4.5
					c1.08,0.49,2.25,0.98,3.65,1.49c1.55,0.51,2.95,0.9,4.26,1.21C181.1,40,181.28,37.68,181.01,36.39z"/>
				<path class="st3" d="M192.29,47.09c0.18-0.76,0.34-1.48,0.46-2.18c-1.39-1.72-2.31-3.47-2.62-5.11l-0.02-0.08
					c-0.02-0.01-0.05-0.02-0.07-0.04c-0.88-0.44-1.8-0.89-2.72-1.32c-0.95-0.44-1.89-0.89-2.91-1.33c0.03,0.37,0,0.82,0,1.23
					c0.02,1.45-0.09,3.05-0.33,4.81c-0.07,0.53-0.17,1.09-0.26,1.65c-0.09,0.56-0.18,1.11-0.28,1.69c-0.12,0.7-0.25,1.4-0.39,2.11
					c1.64-0.97,3.75-1.54,6.13-1.58C190.26,46.91,191.27,46.96,192.29,47.09z"/>
				<path class="st3" d="M188.83,59.55c0.08-0.38,0.15-0.74,0.25-1.14c-1.06-0.62-2.07-1.26-2.96-1.95c-1.75-1.41-2.95-2.71-3.74-4
					c-0.12,0.6-0.24,1.23-0.36,1.86c-0.11,0.57-0.21,1.15-0.31,1.73c-0.47,2.75-0.78,5.32-0.54,6.51c0.02,0.1,0.03,0.24,0.06,0.32
					c0.4,0.01,0.83,0.04,1.24,0.05l0.05-0.06c0.4-0.47,0.9-0.88,1.44-1.27c1.25-0.9,2.82-1.6,4.68-2.02
					C188.71,59.57,188.78,59.56,188.83,59.55z"/>
				<path class="st3" d="M196.54,63.07c-1.53-0.4-3.18-0.47-4.82-0.4c-0.55,0.02-1.1,0.05-1.64,0.13c-0.24,0.03-0.49,0.01-0.73,0.06
					c-0.35,0.08-0.65,0.2-0.97,0.31c-0.16,0.05-0.32,0.09-0.47,0.15c-0.74,0.27-1.43,0.59-1.97,0.97c0.15,0.19,0.37,0.39,0.56,0.58
					c0.53,0.54,1.16,1.08,2.02,1.63c0.21,0.13,0.45,0.21,0.66,0.33c1.63,0.91,3.44,1.64,5.44,2.09c1.39,0.36,2.85,0.53,4.33,0.62
					c0.1-0.44,0.22-0.89,0.37-1.37c0.09-0.27,0.18-0.55,0.29-0.84c0.3-0.83,0.65-1.7,1.06-2.64c-1.27-0.68-2.64-1.25-4.11-1.6
					L196.54,63.07z"/>
				<path class="st3" d="M189.37,50.29c-1.49,0.03-2.84,0.3-3.9,0.77c0.59,0.85,1.49,1.77,2.74,2.77c0.54,0.42,1.2,0.8,1.82,1.19
					c0.49,0.31,0.94,0.63,1.48,0.92c0.48,0.26,1.02,0.49,1.53,0.73c0.6,0.29,1.17,0.61,1.81,0.86c2.34,0.98,4.9,1.67,7.42,1.98
					c0.24-0.03,1.05-0.48,1.58-1.55c0.01-0.02,0.01-0.03,0.02-0.04c0.37-0.77,0.4-1.47,0.2-1.67c-1.62-1.73-3.94-3.25-6.74-4.42
					c-0.86-0.34-1.74-0.54-2.62-0.77c-0.55-0.14-1.08-0.34-1.62-0.44c-0.59-0.11-1.13-0.1-1.71-0.15
					C190.71,50.41,190,50.28,189.37,50.29z"/>
				<path class="st3" d="M196.31,43.91C196.32,43.92,196.32,43.92,196.31,43.91c1.49,1.72,3.56,3.46,6.58,5.53
					c1.32,0.85,2.6,1.58,3.83,2.22c0.98-2.35,1.76-4.57,1.84-5.88c-0.57-0.45-1.15-0.89-1.79-1.32c-2.73-1.78-5.63-3.03-8.35-3.58
					l-0.03-0.01c-0.77-0.17-1.54-0.27-2.28-0.31c-0.65-0.04-1.26,0-1.85,0.06c-0.11,0.01-0.23,0-0.34,0.01
					c0.16,0.33,0.41,0.68,0.63,1.03C195.03,42.41,195.59,43.15,196.31,43.91z"/>
				<path class="st3" d="M210.21,70.12c0.19-0.37,0.36-0.74,0.58-1.12c-0.82-0.82-1.66-1.61-2.38-2.51
					c-1.36-1.87-2.19-3.4-2.62-4.82c-0.27,0.56-0.55,1.14-0.83,1.73c-0.25,0.53-0.49,1.06-0.74,1.59c-1.16,2.55-2.12,4.96-2.19,6.18
					c-0.01,0.1-0.04,0.24-0.03,0.33c0.41,0.11,0.79,0.24,1.19,0.36l0.07-0.05c0.45-0.31,1.06-0.46,1.6-0.69
					c1.53-0.65,3.26-1.07,5.19-1.01C210.1,70.11,210.15,70.12,210.21,70.12z"/>
				<path class="st3" d="M207.52,58.07c1.86-0.55,4.09-0.59,6.33-0.04c0.94,0.19,1.9,0.49,2.88,0.87c0.38-0.7,0.71-1.37,1.02-2.02
					c-0.94-2.12-1.37-3.97-1.24-5.59l0.01-0.08c-0.02-0.02-0.04-0.03-0.06-0.05c-0.75-0.65-1.53-1.31-2.32-1.95
					c-0.79-0.65-1.57-1.29-2.42-1.94c-0.07,0.37-0.21,0.8-0.31,1.19c-0.36,1.4-0.87,2.92-1.57,4.59c-0.21,0.49-0.45,1.02-0.68,1.53
					c-0.23,0.51-0.45,1.02-0.7,1.56C208.15,56.75,207.84,57.41,207.52,58.07z"/>
				<path class="st3" d="M216.83,75.4c-1.47-0.78-3.04-1.25-4.61-1.57c-0.55-0.11-1.09-0.22-1.63-0.26
					c-0.22-0.02-0.46-0.1-0.67-0.11c-0.37-0.02-0.71,0.03-1.06,0.05c-0.17,0.01-0.34,0.01-0.5,0.02c-0.78,0.09-1.52,0.23-2.16,0.49
					c0.09,0.21,0.26,0.45,0.39,0.67c0.37,0.64,0.85,1.32,1.55,2.11c0.15,0.15,0.34,0.27,0.49,0.42c1.38,1.29,2.98,2.46,4.8,3.38
					c1.31,0.69,2.69,1.21,4.06,1.65c0.22-0.42,0.46-0.85,0.75-1.3c0.16-0.26,0.33-0.52,0.52-0.79c0.49-0.72,1.04-1.47,1.67-2.26
					C219.4,76.98,218.19,76.12,216.83,75.4z"/>
				<path class="st3" d="M221.44,56.82c0,0.01,0.01,0.01,0.01,0.02c1.15,2.19,2.86,4.56,4.95,6.85c0.98,1.1,2.05,2.14,3.15,3.1
					c1.55-2.04,2.89-4.02,3.3-5.26c-0.44-0.57-0.9-1.14-1.39-1.69c-2.2-2.4-4.74-4.34-7.13-5.46l-0.05-0.02
					c-0.71-0.36-1.44-0.65-2.15-0.87c-0.62-0.19-1.22-0.3-1.81-0.38c-0.11-0.01-0.24-0.06-0.35-0.07c0.07,0.36,0.22,0.78,0.36,1.18
					C220.59,55.02,220.93,55.88,221.44,56.82z"/>
				<path class="st3" d="M215,61.93c-0.63-0.22-1.27-0.52-1.88-0.64c-1.43-0.35-2.83-0.41-4.01-0.2c0.35,0.94,0.99,2.05,1.96,3.37
					c0.44,0.55,0.96,1.05,1.44,1.57c0.4,0.42,0.76,0.87,1.19,1.27c0.41,0.38,0.87,0.71,1.31,1.07c0.5,0.41,0.97,0.86,1.5,1.23
					c2.13,1.59,4.44,2.87,6.71,3.72c0.24,0.09,1.16-0.22,1.96-1.15c0.02-0.03,0.04-0.05,0.07-0.08c0.57-0.7,0.69-1.3,0.58-1.49
					c-1.15-2.05-3.07-4.14-5.41-5.9c-0.78-0.55-1.56-0.95-2.34-1.38c-0.49-0.27-0.97-0.61-1.46-0.83
					C216.07,62.23,215.54,62.12,215,61.93z"/>
				<path class="st3" d="M228.11,85.48c0.04,0.01,0.09,0.03,0.14,0.05c0.28-0.32,0.55-0.64,0.86-0.98c-0.59-0.99-1.21-1.97-1.67-3
					c-0.86-2.07-1.17-3.83-1.2-5.42c-0.45,0.53-0.91,1.07-1.37,1.64c-0.37,0.45-0.74,0.9-1.11,1.35c-0.87,1.08-1.67,2.12-2.33,3.07
					c0,0,0,0.01-0.01,0.01c-0.67,0.96-1.15,1.78-1.34,2.37c-0.03,0.1-0.1,0.23-0.11,0.32c0.34,0.2,0.68,0.44,1.03,0.64l0.08-0.03
					c0.63-0.24,1.31-0.38,2.02-0.47C224.65,84.81,226.37,84.95,228.11,85.48z"/>
				<path class="st3" d="M231.18,70.19c-0.35,0.44-0.69,0.88-1.07,1.33c-0.45,0.54-0.91,1.1-1.38,1.66
					c1.87-0.08,3.97,0.41,6.09,1.48c0.87,0.41,1.73,0.93,2.59,1.54c0.55-0.59,1.05-1.18,1.52-1.74c-0.38-2.37-0.33-4.22,0.19-5.7
					l0.01-0.02c0-0.01-0.01-0.01-0.01-0.02c-0.54-0.78-1.1-1.55-1.67-2.32c-0.65-0.89-1.25-1.82-1.93-2.68
					c-0.16,0.34-0.41,0.73-0.61,1.09c-0.7,1.28-1.58,2.62-2.69,4.07C231.89,69.3,231.53,69.75,231.18,70.19z"/>
				<path class="st3" d="M233.4,92.22c-1.34-1.15-2.73-1.97-4.11-2.62c-0.51-0.24-1.02-0.48-1.52-0.64c-0.2-0.07-0.4-0.2-0.59-0.25
					c-0.37-0.11-0.72-0.15-1.08-0.22c-0.17-0.03-0.35-0.08-0.52-0.1c-0.77-0.1-1.51-0.14-2.17-0.04c0.04,0.23,0.13,0.49,0.2,0.74
					c0.2,0.75,0.49,1.55,0.96,2.41c0.11,0.18,0.27,0.36,0.39,0.54c1,1.57,2.28,3.11,3.79,4.45c1.18,1.03,2.35,1.84,3.51,2.55
					c0.29-0.33,0.61-0.67,0.97-1.01c0.23-0.22,0.48-0.45,0.74-0.67c0.67-0.59,1.41-1.2,2.23-1.83
					C235.42,94.38,234.52,93.26,233.4,92.22z"/>
				<path class="st3" d="M242.49,75.34c0,0.02,0.01,0.04,0.01,0.06c0.66,2.61,1.72,5.31,3.06,7.76c0.68,1.31,1.44,2.58,2.27,3.78
					c1.97-1.57,3.72-3.12,4.48-4.22c-0.28-0.68-0.5-1.39-0.85-2.04c-1.54-2.92-3.46-5.35-5.54-7.04l-0.03-0.02
					c-0.63-0.53-1.26-0.98-1.89-1.37c-0.56-0.34-1.11-0.59-1.65-0.8c-0.1-0.04-0.22-0.12-0.32-0.15c-0.02,0.36,0.02,0.8,0.05,1.22
					C242.14,73.35,242.26,74.26,242.49,75.34z"/>
				<path class="st3" d="M236.42,79.65c-0.45-0.37-0.91-0.7-1.37-1.01c-0.57-0.37-1.14-0.71-1.71-0.98
					c-1.37-0.69-2.71-1.09-3.86-1.17c0.1,1.06,0.45,2.32,1.03,3.73c0.28,0.63,0.66,1.25,1.01,1.87c0.28,0.51,0.53,1.03,0.84,1.52
					c0.3,0.48,0.67,0.91,1,1.37c0.38,0.52,0.73,1.07,1.14,1.56c1.86,2.22,3.73,3.96,5.56,5.17c0.24,0.17,1.16,0.08,2.11-0.55
					c0.04-0.03,0.09-0.06,0.13-0.09c0.7-0.52,1.08-1.11,1.01-1.39c-0.66-2.37-2-4.85-3.76-6.94l0,0c-0.6-0.72-1.23-1.36-1.86-1.97
					C237.26,80.37,236.85,79.99,236.42,79.65z"/>
				<path class="st3" d="M241.69,104.68c0.05,0.03,0.1,0.07,0.14,0.09c0.34-0.23,0.67-0.47,1.04-0.71c-0.35-1.18-0.64-2.32-0.8-3.39
					c-0.32-2.05-0.18-3.86,0.2-5.47c-0.57,0.4-1.15,0.82-1.74,1.25c-0.47,0.34-0.94,0.69-1.41,1.04c-1.15,0.86-2.22,1.7-3.11,2.48
					c-0.02,0.02-0.04,0.04-0.06,0.05c-0.83,0.72-1.45,1.36-1.77,1.85c-0.06,0.09-0.16,0.21-0.2,0.29c0.27,0.27,0.57,0.57,0.85,0.85
					l0.05-0.01c0.7-0.09,1.44-0.05,2.18,0.04C238.56,103.24,240.13,103.76,241.69,104.68z"/>
				<path class="st3" d="M255.59,88.21c-0.39-0.97-0.77-1.94-1.16-2.83c-0.26,0.32-0.63,0.66-0.94,0.99
					c-0.99,1.05-2.17,2.12-3.58,3.24c-0.42,0.33-0.89,0.68-1.33,1.01c-0.45,0.34-0.89,0.68-1.36,1.02
					c-0.56,0.41-1.15,0.84-1.74,1.26c1.77,0.37,3.63,1.34,5.47,2.9c0.74,0.64,1.45,1.35,2.12,2.13c0.69-0.45,1.33-0.89,1.93-1.34
					c0.22-2.28,0.76-4.12,1.62-5.46l0.06-0.09c-0.01-0.02-0.01-0.03-0.02-0.05C256.31,90.04,255.95,89.1,255.59,88.21z"/>
				<path class="st3" d="M152.51,56.5c-0.43-0.8-0.83-1.6-1.21-2.44c-0.06-0.13-0.11-0.26-0.17-0.39c-0.1-0.23-0.2-0.46-0.3-0.69
					c-0.35,0.78-0.7,1.55-1.08,2.3c-0.27,0.54-0.57,1.05-0.86,1.57c-1.12,2-2.41,3.79-3.94,5.27c-0.19,0.18-0.33,0.41-0.52,0.58
					l7.17-0.23l0.03,0c0,0,0.01,0,0.01,0c0.35,0,0.62-0.08,0.95-0.1c1.35-0.09,2.55-0.36,3.62-0.79c-0.3-0.29-0.6-0.59-0.88-0.91
					C154.24,59.42,153.31,58.01,152.51,56.5z"/>
				<path class="st3" d="M163.58,37.72c0.68,1.24,1.31,2.54,1.9,3.88c0.25,0.56,0.5,1.11,0.74,1.68c0.22,0.53,0.43,1.07,0.65,1.6
					c0,0.01,0.01,0.02,0.01,0.03c0-0.01,0.01-0.02,0.01-0.03c0.24-0.58,0.48-1.16,0.73-1.74c0.26-0.58,0.51-1.16,0.79-1.73
					c0.01-0.02,0.02-0.04,0.03-0.06c0.26-0.53,0.55-1.04,0.83-1.55c0.26-0.47,0.55-0.92,0.83-1.36c1.01-1.56,2.17-2.97,3.59-4.11
					c0.48-0.38,1-0.72,1.53-1.03c0.16-0.09,0.3-0.21,0.46-0.29c0.04-0.02,0.08-0.05,0.12-0.08l-3.41-0.76l-4.55-1.02
					c-0.9,0-1.71,0.14-2.49,0.32c-1.69,0.4-3.13,1.2-4.39,2.3c0.05,0.06,0.11,0.11,0.16,0.17
					C162.05,35.08,162.83,36.37,163.58,37.72z"/>
				<path class="st3" d="M168.85,56.78c-0.28-0.49-0.56-0.98-0.82-1.49c-0.38-0.75-0.73-1.52-1.08-2.3
					c-0.16-0.36-0.34-0.69-0.5-1.06c-0.12-0.28-0.23-0.57-0.35-0.85c-0.17-0.4-0.33-0.8-0.49-1.2c-0.12-0.28-0.23-0.56-0.35-0.85
					c-0.19-0.46-0.38-0.92-0.56-1.38c-0.31-0.77-0.62-1.53-0.93-2.29c-0.22-0.53-0.44-1.06-0.66-1.58
					c-0.22-0.52-0.45-1.03-0.67-1.54c-1.05-2.33-2.2-4.48-3.57-6.25c-0.32-0.41-0.66-0.77-1.01-1.14c-0.36-0.38-0.73-0.75-1.12-1.08
					c-0.11-0.09-0.25-0.15-0.37-0.24l-0.76-0.56c-0.35-0.26-0.76-0.48-1.18-0.7c-1.41-0.68-2.98-1.12-4.84-1.13l-4.24,0.96
					l-3.4,0.77c0.05,0.03,0.09,0.06,0.14,0.09c0.15,0.08,0.29,0.19,0.44,0.28c0.54,0.32,1.07,0.66,1.56,1.05
					c1.42,1.14,2.58,2.55,3.59,4.11c0.29,0.45,0.57,0.89,0.83,1.36c0.29,0.51,0.57,1.02,0.83,1.55c0.01,0.02,0.02,0.05,0.03,0.07
					c0.28,0.56,0.54,1.14,0.79,1.72c0.25,0.57,0.49,1.15,0.73,1.73c0.01,0.01,0.01,0.03,0.02,0.04c0.28,0.69,0.55,1.37,0.81,2.06
					c0.12,0.31,0.24,0.62,0.36,0.93c0.15,0.39,0.3,0.76,0.44,1.14c0.08,0.21,0.17,0.43,0.25,0.64c0.2,0.53,0.41,1.05,0.62,1.56
					c0.21,0.51,0.42,1.01,0.64,1.5c1.3,2.96,2.77,5.53,4.86,7.28c0.4,0.33,0.84,0.6,1.29,0.87c0.04,0.03,0.08,0.06,0.12,0.08
					c0.4,0.24,0.84,0.43,1.29,0.62c1.06,0.44,2.27,0.71,3.62,0.8c0.33,0.02,0.61,0.1,0.96,0.1h0.05l7.15,0.24
					c-0.19-0.17-0.33-0.4-0.52-0.57C171.29,60.64,169.99,58.82,168.85,56.78z"/>
				<path class="st3" d="M79.31,106.77c-0.17,0.07-0.34,0.16-0.51,0.24c-0.33,0.15-0.66,0.27-0.99,0.46l-0.03,0.02
					c-0.17,0.1-0.33,0.27-0.5,0.38c-0.45,0.28-0.89,0.64-1.32,1c-1.16,0.96-2.29,2.09-3.28,3.53c-0.44,0.66-0.75,1.37-1.09,2.07
					h3.23h2.4h1.6c0.94-1.56,1.61-3,2.01-4.31c0.06-0.19,0.17-0.4,0.21-0.58c0.25-0.91,0.33-1.76,0.33-2.56c0-0.26,0.03-0.54,0-0.79
					C80.72,106.28,80.02,106.49,79.31,106.77z"/>
				<path class="st3" d="M59.23,95.35c-0.08-0.41-0.16-0.83-0.27-1.18c-0.08,0.05-0.17,0.15-0.25,0.21
					c-0.45,0.32-0.9,0.68-1.35,1.14c-0.52,0.53-1.05,1.15-1.57,1.85c-1.17,1.66-2.76,4.43-3.56,8.11l-0.01,0.05
					c-0.17,0.7-0.21,1.44-0.31,2.17c1.02,0.9,3.11,1.98,5.44,3.04c0.47-1.31,0.89-2.7,1.23-4.16c0.85-3.43,1.01-6.42,0.99-8.34
					c0-0.02,0-0.03,0-0.05C59.54,97.13,59.41,96.2,59.23,95.35z"/>
				<path class="st3" d="M72.42,100.08c0.22-1.41,0.23-2.75,0.04-3.87c-1.06,0.34-2.23,1.03-3.44,2.04
					c-0.47,0.41-0.87,0.95-1.31,1.42c-0.39,0.42-0.81,0.8-1.17,1.27c-0.34,0.45-0.6,0.94-0.9,1.41c-0.47,0.75-0.98,1.48-1.34,2.28
					c-1.48,3.06-1.84,5.87-1.88,7.7c0,0.21,0.47,0.76,1.46,1.13c0.01,0,0.03,0.01,0.04,0.01c1.17,0.42,2.02,0.22,2.15,0.07
					c1.44-1.58,2.77-3.65,4.09-6.38c0.28-0.62,0.46-1.19,0.69-1.78c0.21-0.53,0.45-1.07,0.61-1.58c0.19-0.58,0.31-1.12,0.45-1.68
					C72.11,101.43,72.33,100.72,72.42,100.08z"/>
				<path class="st3" d="M51.72,111.56c-0.39-0.25-0.84-0.49-1.17-0.74c-0.14,0.95-0.27,1.96-0.4,2.97
					c-0.03,0.23-0.06,0.44-0.09,0.67h0.19h1.97h3.48h1.76c-0.48-0.21-0.99-0.41-1.45-0.62C54.36,113.1,52.95,112.34,51.72,111.56z"
					/>
				<path class="st3" d="M265.59,105.67c-0.8-3.69-2.39-6.48-3.59-8.18c-0.5-0.68-1.01-1.27-1.52-1.79
					c-0.47-0.48-0.93-0.86-1.39-1.19c-0.08-0.06-0.17-0.16-0.25-0.21c-0.11,0.35-0.18,0.77-0.27,1.18c-0.17,0.86-0.3,1.79-0.33,2.87
					c0,0.02,0,0.03,0,0.05c-0.01,1.89,0.15,4.88,0.99,8.28c0.34,1.46,0.76,2.86,1.23,4.18c2.32-1.05,4.42-2.14,5.44-3.03
					C265.8,107.11,265.76,106.37,265.59,105.67z"/>
				<path class="st3" d="M241.85,108.96c-0.44-0.36-0.87-0.71-1.32-1c-0.17-0.11-0.33-0.28-0.5-0.38c-0.34-0.2-0.68-0.32-1.02-0.48
					c-0.16-0.08-0.33-0.17-0.49-0.23c-0.72-0.28-1.42-0.5-2.07-0.56c-0.03,0.25,0,0.53,0,0.79c0,0.8,0.07,1.65,0.31,2.51
					c0.05,0.21,0.17,0.45,0.24,0.66c0.42,1.3,1.07,2.69,1.96,4.19h1.51h2.46h3.24c-0.33-0.66-0.61-1.34-1.03-1.97
					C244.14,111.05,243.02,109.92,241.85,108.96z"/>
				<path class="st3" d="M253.51,104.75c-0.37-0.81-0.88-1.54-1.35-2.29c-0.3-0.48-0.56-0.97-0.9-1.42
					c-0.36-0.47-0.78-0.84-1.17-1.27c-0.44-0.48-0.84-1.02-1.31-1.43c-1.18-1.01-2.37-1.71-3.43-2.05c-0.19,1.1-0.18,2.43,0.05,3.86
					c0.09,0.65,0.31,1.37,0.49,2.06c0.14,0.55,0.26,1.09,0.45,1.68c0.17,0.51,0.41,1.05,0.62,1.58c0.24,0.61,0.42,1.19,0.71,1.82
					c1.34,2.73,2.66,4.8,4.03,6.29c0.2,0.23,1.1,0.36,2.19-0.02c0.04-0.01,0.07-0.03,0.1-0.04c0.94-0.36,1.4-0.89,1.4-1.14
					c-0.06-2.53-0.72-5.26-1.87-7.63L253.51,104.75z"/>
				<path class="st3" d="M267.67,113.9c-0.13-1-0.25-2-0.4-2.94c-0.34,0.25-0.78,0.49-1.17,0.74c-1.23,0.78-2.64,1.53-4.29,2.28
					c-0.37,0.17-0.78,0.33-1.16,0.5h1.38h3.68h1.89h0.14C267.73,114.27,267.7,114.09,267.67,113.9z"/>
			</g>
			<g>
				<path class="st3" d="M71.62,61.93c23.28-22.68,54.24-35.18,87.18-35.18c0.03,0,0.06,0,0.09,0
					c57.44,0.04,105.86,38.53,119.56,90.41l2.77,1.27c-13.29-53.86-63.08-94.05-122.33-94.09c-0.03,0-0.05,0-0.09,0
					c-33.57,0-65.13,12.73-88.86,35.86c-16.79,16.35-28.21,36.53-33.49,58.52l2.76-1.26C44.58,96.62,55.63,77.51,71.62,61.93z"/>
			</g>
			<g>
				<g>
					<g>
						<path class="st0" d="M95.02,158.96l0.68-2.65l-5.3-0.01C92.36,156.37,94.01,157.43,95.02,158.96z"/>
					</g>
					<g>
						<path class="st0" d="M85.37,158.96c1.01-1.53,2.65-2.59,4.62-2.66l-5.3-0.01L85.37,158.96z"/>
					</g>
					<g>
						<path class="st0" d="M107.53,158.97l0.68-2.66l-5.31,0C104.87,156.38,106.52,157.44,107.53,158.97z"/>
					</g>
					<g>
						<path class="st0" d="M97.86,158.97c0.22-0.33,0.37-0.69,0.66-0.98c1.07-1.07,2.39-1.54,3.98-1.68l-5.32,0L97.86,158.97z"/>
					</g>
					<g>
						<path class="st0" d="M120.01,158.98l0.68-2.65l-5.29,0C117.36,156.39,119.01,157.45,120.01,158.98z"/>
					</g>
					<g>
						<path class="st0" d="M110.36,158.99c1.01-1.53,2.66-2.59,4.62-2.66l-5.31,0L110.36,158.99z"/>
					</g>
					<g>
						<path class="st0" d="M122.85,158.98c1.01-1.53,2.66-2.58,4.62-2.65h-5.3L122.85,158.98z"/>
					</g>
					<g>
						<path class="st0" d="M132.51,159l0.68-2.67h-5.32C129.85,156.4,131.5,157.46,132.51,159z"/>
					</g>
					<g>
						<path class="st0" d="M151.25,159.01l0.69-2.68l-5.34,0C148.58,156.4,150.24,157.47,151.25,159.01z"/>
					</g>
					<g>
						<path class="st0" d="M146.24,156.33l-5.34,0l0.69,2.67C142.6,157.46,144.26,156.39,146.24,156.33z"/>
					</g>
					<g>
						<path class="st0" d="M158.92,160.67c-0.81,0-1.49,0.64-1.49,1.4l0,5.01l2.98,0l0-5.01
							C160.41,161.31,159.73,160.67,158.92,160.67z"/>
					</g>
					<g>
						<path class="st0" d="M163.75,159.01l0.68-2.66l-5.32-0.01C161.09,156.41,162.74,157.47,163.75,159.01z"/>
					</g>
					<g>
						<path class="st0" d="M158.73,156.35l-5.33-0.01l0.69,2.67C155.1,157.48,156.76,156.41,158.73,156.35z"/>
					</g>
					<g>
						<path class="st0" d="M176.25,159.02l0.68-2.66l-5.33,0C173.59,156.42,175.24,157.48,176.25,159.02z"/>
					</g>
					<g>
						<path class="st0" d="M171.22,156.35l-5.31,0l0.68,2.65C167.6,157.48,169.25,156.42,171.22,156.35z"/>
					</g>
					<g>
						<path class="st0" d="M194.34,158.06c0.28,0.29,0.44,0.65,0.65,0.97l0.69-2.66l-5.29-0.01
							C191.88,156.42,193.28,156.99,194.34,158.06z"/>
					</g>
					<g>
						<path class="st0" d="M185.33,159.02c1.01-1.53,2.65-2.58,4.62-2.66l-5.3-0.01L185.33,159.02z"/>
					</g>
					<g>
						<path class="st0" d="M207.49,159.04l0.68-2.67h-5.33C204.82,156.44,206.47,157.5,207.49,159.04z"/>
					</g>
					<g>
						<path class="st0" d="M197.83,159.03c0.22-0.33,0.37-0.69,0.66-0.98c1.07-1.06,2.48-1.64,3.98-1.68h-5.33L197.83,159.03z"/>
					</g>
					<g>
						<path class="st0" d="M219.98,159.04l0.68-2.66l-5.37,0C217.29,156.43,218.96,157.5,219.98,159.04z"/>
					</g>
					<g>
						<path class="st0" d="M210.33,159.05c0.22-0.33,0.38-0.7,0.66-0.99c1.07-1.07,2.49-1.64,4.01-1.68l-5.36,0L210.33,159.05z"/>
					</g>
					<g>
						<path class="st0" d="M232.48,159.05l0.68-2.66l-5.36,0C229.8,156.44,231.47,157.51,232.48,159.05z"/>
					</g>
					<g>
						<path class="st0" d="M222.82,159.05c1.02-1.54,2.68-2.61,4.67-2.66l-5.35,0L222.82,159.05z"/>
					</g>
					<g>
						<path class="st0" d="M235.31,159.05c1.01-1.53,2.67-2.6,4.65-2.66l-5.34-0.01L235.31,159.05z"/>
					</g>
					<g>
						<path class="st0" d="M244.98,159.05l0.68-2.65l-5.33-0.01C242.31,156.46,243.97,157.52,244.98,159.05z"/>
					</g>
					<g>
						<g>
							<path class="st0" d="M56.75,159.14c0-1.19-2.63-2.15-5.88-2.15c-0.01,0-0.01,0-0.02,0c-3.24,0-5.86,0.96-5.86,2.14v13.19
								h11.76V159.14z M55.31,170.88h-8.89v-11.54c0.43-0.35,2.02-0.92,4.43-0.92h0.02c2.41,0,4.01,0.58,4.44,0.93V170.88z"/>
						</g>
					</g>
					<g>
						<g>
							<path class="st0" d="M272.87,159.27c0-1.18-2.64-2.14-5.89-2.15c-3.25,0-5.87,0.96-5.87,2.14v13.19l11.77,0.01L272.87,159.27
								z M262.54,171.02v-11.54c0.43-0.35,2.03-0.92,4.43-0.92c2.42,0.01,4.03,0.58,4.46,0.94l0,11.53L262.54,171.02z"/>
						</g>
					</g>
					<g>
						<g>
							<path class="st0" d="M163.45,109.09v-8.94l-9.22-0.01l0.01,8.94L163.45,109.09z M158.83,101.21c1.82,0,3.31,1.44,3.31,3.23
								c0,1.77-1.49,3.22-3.31,3.22c-1.82,0-3.31-1.45-3.31-3.22C155.53,102.65,157.01,101.21,158.83,101.21z"/>
						</g>
					</g>
					<g>
						<polygon class="st0" points="141.27,120.51 133.18,120.5 133.18,123.36 141.27,123.37 						"/>
					</g>
					<g>
						<rect x="176.56" y="120.53" class="st0" width="8.08" height="2.87"/>
					</g>
					<g>
						<polygon class="st0" points="161.09,103.95 159.43,103.95 159.43,101.63 158.34,101.63 158.34,105.04 161.09,105.04 						"/>
					</g>
					<g>
						<g>
							<path class="st0" d="M289.41,180.31l0-6.45l-1.48-1.43l-0.01-42.89h-0.1c-0.43-0.32-0.7-0.73-0.7-1.17
								c0-0.48,0.29-0.92,0.78-1.25c0.01-0.01,0.03-0.01,0.04-0.02v-0.05v-0.44v-1.5l-15.45-7.31l-2.21-0.02v-0.08l-8.27,0l-0.08,0
								l0,0l-91.93-0.06l-2.89-3.18l-0.1,0.01l0-0.01c1.2,0,2.18-0.98,2.18-2.18c0-1.21-0.97-2.18-2.18-2.18h0l0-9.75l1.11,0
								l-0.01-7.17l-1.23,0c-0.54-3.42-3.34-6.12-6.87-6.6l0-5.01c0-0.55-0.49-0.99-1.09-0.99c-0.6,0-1.09,0.44-1.09,0.99l0,5
								c-3.52,0.47-6.33,3.17-6.86,6.6l-1.23,0l0,7.16l1.11,0l0,9.75c-1.2,0-2.18,0.98-2.18,2.18c0,1.21,0.97,2.18,2.18,2.18l0,0.01
								l-0.01,0l-2.88,3.17l-100.37-0.06v0.01l-1.67-0.02L30,124.97v1.49v0.43v0.05c0.01,0.01,0.03,0.01,0.05,0.02
								c0.47,0.32,0.77,0.77,0.77,1.26c0,0.44-0.28,0.85-0.69,1.16h-0.21l0.01,42.9l-1.46,1.43l0,6.45l-0.74,0.71l0,4.41
								l105.49,0.06v0.37l50.34,0.03l1.09,0v-0.37l105.49,0.06v-4.4L289.41,180.31z M249.13,152.46v-16.18
								c0-0.26,0.23-0.48,0.51-0.48h0.1c0.28,0,0.52,0.22,0.52,0.48v16.17L249.13,152.46z M252.08,152.46l0-16.85
								c0-0.69,0.58-1.24,1.29-1.24h0.01c0.7,0,1.3,0.57,1.3,1.24l0,16.85L252.08,152.46z M256.49,136.29
								c0-0.26,0.23-0.48,0.52-0.48h0.07c0.29,0,0.52,0.22,0.52,0.48l0.01,16.18l-1.11,0L256.49,136.29z M249.91,158.35v-2.78h6.94
								v2.78H249.91z M256.85,164.88v2.74h-6.93v-2.74H256.85z M256.85,163.01h-6.93v-2.74h6.93V163.01z M249.91,169.54h6.93v2.78
								h-6.93V169.54z M286.46,175.4v5.01l-38.96-0.02v-5.02L286.46,175.4z M266.97,154.76c4.46,0,8.1,1.61,8.1,3.59l0,14.9
								l-16.18-0.01v-14.9C258.9,156.36,262.51,154.75,266.97,154.76z M261.09,138.15c0-2.37,2.62-4.3,5.88-4.29
								c3.24,0,5.89,1.92,5.89,4.3l0,14.31h-5.9l-5.87,0L261.09,138.15z M279.28,135.64c0-0.7,0.57-1.25,1.29-1.25
								c0.7,0,1.29,0.57,1.29,1.25v16.84l-2.58,0L279.28,135.64z M277.1,158.33v-2.78h6.94v2.78H277.1z M284.04,169.52v2.78h-6.93
								v-2.78H284.04z M284.04,167.6h-6.93v-2.74h6.93V167.6z M284.04,162.99h-6.93v-2.74h6.93V162.99z M277.44,152.48l-1.11,0
								v-16.16v-0.01c0-0.12,0.05-0.24,0.14-0.33c0.1-0.1,0.22-0.14,0.37-0.14h0.08c0.29,0,0.52,0.22,0.52,0.48V152.48z
								 M284.81,152.48l-1.12,0l-0.01-16.16c0-0.27,0.24-0.49,0.52-0.49h0.08c0.29,0,0.52,0.22,0.52,0.49L284.81,152.48z
								 M284.69,131.7l-35.71-0.01v-2.09l35.7,0.03L284.69,131.7z M262.15,119.88h9.62l10.55,4.99l-30.7-0.02L262.15,119.88z
								 M158.92,89.53c2.33,0,4.23,1.57,4.84,3.66l-9.68,0C154.7,91.09,156.59,89.52,158.92,89.53z M164.54,99.06v11.12l-11.39,0
								l-0.01-11.12L164.54,99.06z M158.95,114.46c-0.01,0-0.01,0-0.02,0c-0.01,0-0.01,0-0.02,0L158.95,114.46z M151.68,117.57h14.5
								l0.01-0.03l0.09,0.11h-0.01l0.96,1.09l0.96,1.09h0.01l8.75,9.91v0.09l-36.07-0.02v0L151.68,117.57z M182.46,156.02l0,17.89
								l-6.28,0l0-11.82c0-2.58-2.14-4.68-4.77-4.68h-0.01h0c-2.62,0-4.75,2.09-4.75,4.67v11.82l-2.96,0l0-11.82
								c0-2.58-2.14-4.67-4.76-4.67c-2.63,0-4.76,2.09-4.76,4.67l0,11.82l-2.97,0l0-11.82v0c-0.01-2.57-2.14-4.66-4.77-4.68h-0.01
								c-2.62,0-4.76,2.09-4.76,4.67l0,11.83l-6.28,0l-0.01-17.89L182.46,156.02z M179.1,125.9h2.99l0.01,27.94l-2.98,0L179.1,125.9
								z M177.9,183.98h-38.16v-0.83h38.16V183.98z M146.42,172.09c1.63,0,2.94,0.8,2.94,1.79l-5.88,0
								C143.48,172.89,144.8,172.09,146.42,172.09z M143.84,162.06c0-1.19,0.88-2.13,2.03-2.38l0,11.34l-2.03,0L143.84,162.06z
								 M146.96,159.68c1.16,0.26,2.04,1.21,2.04,2.39l0,8.95l-2.04,0L146.96,159.68z M150.24,175.32v1.04h-2.95v1.8h-2.97v2.17
								l-8.91-0.01l0-5.01L150.24,175.32z M156.34,162.07c0-1.37,1.16-2.49,2.58-2.49c1.4,0,2.58,1.14,2.58,2.49l0,11.82l-5.16,0
								L156.34,162.07z M172.79,180.89v0.08h-27.2v-0.1v-0.73h27.2V180.89z M170.05,178.19h-21.82v-0.65h21.82V178.19z
								 M166.83,175.98h-15.5v-0.49h15.5V175.98z M173.9,180.35v-2.17h-2.95v-1.81h-2.96v-1.04l14.47,0.01v5.01L173.9,180.35z
								 M171.42,172.11c1.62,0.01,2.94,0.8,2.95,1.79l-5.88,0C168.49,172.9,169.79,172.11,171.42,172.11z M168.83,171.02v-8.95
								c0-1.19,0.88-2.14,2.04-2.38l0,11.33L168.83,171.02z M171.41,158.5L171.41,158.5L171.41,158.5L171.41,158.5L171.41,158.5z
								 M171.96,159.7c1.16,0.25,2.04,1.2,2.04,2.39l0,8.94l-2.04,0L171.96,159.7z M135.73,125.87l3.01,0.01l0,27.93l-3.01,0
								L135.73,125.87z M144.21,152.03h4.42c0.4,0,0.73,0.33,0.73,0.72v1.07l-5.88,0v-1.07
								C143.48,152.36,143.8,152.03,144.21,152.03z M144.16,150.55v-10.01c0-1.04,0.77-1.87,1.78-2.09l0,12.1H144.16z M146.9,138.45
								c1.01,0.22,1.79,1.05,1.79,2.09l0,10h-1.79L146.9,138.45z M156.72,152.03l4.4,0c0.42,0.01,0.74,0.33,0.74,0.72v1.07l-5.88,0
								v-1.07C155.98,152.37,156.31,152.03,156.72,152.03z M156.57,150.57v-10.01c0-1.04,0.77-1.87,1.78-2.09l0,12.1H156.57z
								 M159.31,138.48c1.01,0.22,1.79,1.05,1.79,2.09l0,10h-1.79L159.31,138.48z M169.21,152.04l4.41,0.01
								c0.4,0,0.74,0.32,0.74,0.71v1.08l-5.89,0l0-1.07C168.47,152.37,168.8,152.04,169.21,152.04z M169.16,150.32v-10.01
								c0-1.04,0.77-1.87,1.78-2.09l0,12.1H169.16z M171.9,138.23c1.01,0.22,1.79,1.05,1.79,2.09l0,10h-1.79L171.9,138.23z
								 M175.61,153.83c0.1-0.35,0.22-0.69,0.22-1.07l0-12.18c0-2.37-2-4.3-4.42-4.3c-2.42-0.01-4.41,1.93-4.41,4.3l0,12.18
								c0,0.38,0.13,0.72,0.22,1.07l-4.13,0c0.09-0.35,0.22-0.69,0.22-1.07l0-12.18c0-2.37-1.97-4.3-4.4-4.3
								c-2.43,0-4.41,1.93-4.4,4.29l0,12.19c0,0.38,0.13,0.72,0.22,1.06l-4.12,0c0.09-0.35,0.22-0.69,0.22-1.07l0-12.18
								c0-2.36-1.99-4.29-4.41-4.29h0c-2.42,0-4.41,1.93-4.41,4.29l0,12.18c0,0.38,0.13,0.72,0.22,1.07l-1.34,0l0-18.08l36.07,0.03
								l0.01,18.07L175.61,153.83z M140.89,134.64v-0.34l36.07,0.02l0,0.35L140.89,134.64z M140.89,133.22v-1.23l36.07,0.02l0,1.22
								L140.89,133.22z M46.13,119.75h9.62l10.55,4.99l-30.7-0.02L46.13,119.75z M32.91,129.47l35.72,0.03v2.06H53.81h-5.88H32.91
								V129.47z M61.34,136.18l0.01,16.17l-1.11,0l-0.01-16.17c0-0.27,0.24-0.49,0.52-0.49l0.04,0l0.03,0
								C61.11,135.69,61.34,135.91,61.34,136.18z M63.17,152.34v-16.84c0-0.69,0.58-1.25,1.29-1.25h0c0.71,0,1.29,0.56,1.29,1.25
								l0.01,16.84L63.17,152.34z M67.93,169.41v2.78h-6.93v-2.78H67.93z M67.93,167.5H61v-2.74h6.93V167.5z M67.93,162.88H61v-2.74
								h6.93V162.88z M60.99,158.23v-2.78h6.94v2.78H60.99z M67.59,152.35l0-16.16v0c0-0.13,0.05-0.25,0.14-0.34
								c0.1-0.1,0.23-0.15,0.38-0.15l0.06-0.1l0,0.1c0.29,0,0.52,0.22,0.52,0.49l0,16.16L67.59,152.35z M50.87,154.62
								c4.47,0,8.09,1.61,8.1,3.58l0,14.9l-16.18-0.01l-0.01-14.9C42.78,156.23,46.4,154.62,50.87,154.62z M44.98,138.01
								c0-2.37,2.63-4.29,5.89-4.29c3.25,0,5.87,1.93,5.87,4.29l0.01,14.32l-11.76-0.01L44.98,138.01z M33.03,136.16
								c0-0.27,0.23-0.49,0.52-0.49h0.07c0.28,0,0.52,0.22,0.52,0.49l0.01,16.17l-1.1,0L33.03,136.16z M35.97,135.49
								c0-0.69,0.58-1.25,1.3-1.25c0.71,0,1.29,0.56,1.29,1.25l0.01,16.84l-2.59,0L35.97,135.49z M40.95,135.67l0.03,0
								c0.28,0,0.52,0.23,0.52,0.49l0,16.16l-1.11,0l-0.01-16.16c0-0.27,0.23-0.49,0.52-0.5L40.95,135.67z M40.73,169.46v2.78H33.8
								v-2.78H40.73z M40.73,167.55H33.8v-2.74h6.93V167.55z M40.73,162.93H33.8v-2.74h6.93V162.93z M40.73,158.27H33.8v-2.78h6.94
								V158.27z M70.35,175.27l0,5.01l-38.96-0.02l0-5.02L70.35,175.27z M70.72,183.86l-39.69-0.03l0-2.15l39.7,0.03V183.86z
								 M71.81,129.44v-0.03h-0.03c-0.43-0.32-0.7-0.72-0.7-1.17c0-0.48,0.29-0.92,0.78-1.25c0.01-0.01,0.03-0.01,0.04-0.02v-0.05
								v-0.44v-1.5l-11.04-5.22l85.08,0.05l-5.07,5.58v-1.66l-7.3-0.01l0,6.08l-61.78-0.04v-0.26h0.06
								C71.85,129.48,71.84,129.46,71.81,129.44z M71.81,131.94l61.77,0.04l0,0.7l-61.78-0.04V131.94z M72.93,173.84l-1.1,0
								l-0.01-17.89l2.38,0l3.4-0.01l0.09,1.41c-2.63,0-4.76,2.09-4.76,4.67L72.93,173.84z M79.17,152.02
								c0.41,0,0.74,0.32,0.74,0.71v1.05l-4.41,0l0-1.05c0-0.39,0.33-0.71,0.73-0.71L79.17,152.02z M78.17,138.06
								c1.1,0.03,1.74-0.12,1.74,0.68l0.05,11.42h-1.79L78.17,138.06z M80.63,173.84l-5.86,0c0-0.99,1.3-1.79,2.92-1.78
								C79.33,172.06,80.63,172.85,80.63,173.84z M78.23,159.64c1.16,0.25,2.05,1.2,2.05,2.38v8.95h-2.05L78.23,159.64z
								 M75.11,162.02c0-1.18,0.88-2.13,2.04-2.38l0,11.33h-2.04L75.11,162.02z M75.43,150.16V138.8c0-0.84,0.72-0.71,1.78-0.74
								l0,12.1H75.43z M132.1,183.9l-57.33-0.03v-2.15l57.33,0.04V183.9z M132.46,180.31l-58.08-0.03l0-5.02l58.08,0.04V180.31z
								 M90.19,172.06c1.63,0.01,2.93,0.8,2.94,1.79l-5.88,0C87.25,172.85,88.58,172.06,90.19,172.06z M87.62,170.97v-8.95
								c0-1.19,0.88-2.13,2.03-2.38l0.01,11.34L87.62,170.97z M90.73,159.64c1.15,0.25,2.04,1.2,2.04,2.39l0,8.95l-2.03,0
								L90.73,159.64z M102.69,172.07c1.62,0.01,2.94,0.8,2.94,1.79l0,0l-5.88,0C99.75,172.86,101.06,172.07,102.69,172.07z
								 M100.1,170.98v-8.94c0-0.65,0.26-1.26,0.73-1.73c0.36-0.36,0.82-0.55,1.31-0.66l0,11.33L100.1,170.98z M102.68,158.45
								L102.68,158.45L102.68,158.45L102.68,158.45L102.68,158.45L102.68,158.45z M103.23,159.65c1.16,0.25,2.05,1.2,2.05,2.4
								l0,8.94l-2.05,0L103.23,159.65z M115.19,172.08c1.62,0,2.94,0.79,2.94,1.79l0,0l-5.87,0l0-0.01
								C112.25,172.87,113.56,172.08,115.19,172.08z M112.61,162.04c0-1.19,0.88-2.13,2.03-2.38l0,11.34h-2.04L112.61,162.04z
								 M115.73,159.66c1.15,0.25,2.03,1.2,2.03,2.39v8.95h-2.03L115.73,159.66z M127.68,172.08c1.63,0,2.94,0.8,2.94,1.79l-5.87,0
								C124.75,172.88,126.06,172.08,127.68,172.08z M125.09,162.05c0-1.19,0.88-2.14,2.04-2.39l0,11.34l-2.04,0L125.09,162.05z
								 M128.22,159.66c1.16,0.25,2.04,1.2,2.04,2.39l0,8.95l-2.04,0L128.22,159.66z M132.45,173.88l0-11.82
								c0-2.58-2.14-4.67-4.77-4.68h0c-2.63,0-4.76,2.1-4.76,4.68l0,11.82l-2.97,0v-11.82c0-2.58-2.13-4.68-4.76-4.68
								c-2.63,0-4.76,2.09-4.76,4.67l0,11.82l-2.96,0l0-11.82v0c0-2.58-2.14-4.68-4.77-4.68h0c-0.01,0-0.01,0-0.01,0
								c-1.28,0-2.48,0.5-3.38,1.4c-0.89,0.88-1.37,2.05-1.37,3.28v11.82l-2.96,0l0-11.83c0-2.58-2.14-4.68-4.76-4.68
								c-2.62,0-4.75,2.1-4.75,4.67v11.83l-2.97,0v-11.82c0-2.58-2.14-4.67-4.77-4.67l-0.1-1.41l3.61,0.01l51.99,0.03l0,4.44
								c0.16,0.53,0.34,1.05,0.34,1.63l0,11.82L132.45,173.88z M91.66,151.99c0.41,0,0.74,0.32,0.74,0.71v1.08l-4.41,0l0-1.08
								c0-0.39,0.33-0.71,0.73-0.71L91.66,151.99z M90.66,138.04c1.1,0.03,1.74-0.12,1.74,0.68l0.05,11.42h-1.79L90.66,138.04z
								 M87.92,150.14v-11.36c0-0.84,0.72-0.71,1.78-0.74l0,12.1H87.92z M104.16,152.02c0.41,0,0.74,0.32,0.74,0.71v1.07l-4.41,0
								l0-1.06c0-0.39,0.33-0.71,0.73-0.71L104.16,152.02z M103.16,138.06c1.1,0.03,1.74-0.12,1.74,0.68l0.05,11.42h-1.79
								L103.16,138.06z M100.42,150.16V138.8c0-0.84,0.72-0.71,1.78-0.74l0,12.1H100.42z M116.65,152.02c0.41,0,0.74,0.32,0.74,0.71
								v1.07l-4.41,0l0-1.07c0-0.39,0.33-0.71,0.73-0.71L116.65,152.02z M115.66,138.06c1.1,0.03,1.74-0.12,1.74,0.68l0.05,11.42
								h-1.79L115.66,138.06z M112.92,150.16V138.8c0-0.84,0.72-0.71,1.78-0.74l0,12.1H112.92z M129.15,151.99
								c0.41,0,0.74,0.32,0.74,0.71v1.1l-4.41,0l0-1.1c0-0.39,0.33-0.71,0.73-0.71L129.15,151.99z M128.15,138.04
								c1.1,0.03,1.74-0.12,1.74,0.68l0.05,11.42h-1.79L128.15,138.04z M125.41,150.14v-11.36c0-0.84,0.72-0.71,1.78-0.74l0,12.1
								H125.41z M131.35,153.81l0-15.78c0-1-0.83-1.8-1.83-1.8h-3.68c-1.01,0-1.83,0.8-1.83,1.79l0,15.78l-5.15,0l0-15.75
								c0-1-0.83-1.8-1.83-1.8h-3.68c-1.01,0-1.83,0.8-1.83,1.79l0,15.76l-5.15,0l0-15.74c0-1-0.83-1.8-1.83-1.8h-3.68
								c-1.01,0-1.83,0.8-1.83,1.79l0,15.75l-5.15,0l0-15.76c0-1-0.83-1.8-1.83-1.8h-3.68c-1.01,0-1.83,0.8-1.83,1.79l0,15.76
								l-5.15,0l0-15.73c0-1-0.83-1.8-1.83-1.8h-3.68c-1.01,0-1.83,0.8-1.83,1.79l0,15.73l-2.21,0l-0.01-20.41l61.77,0.04l0,20.41
								L131.35,153.81z M135.04,181.76l3.37,0v2.14l-3.37,0L135.04,181.76z M179.82,183.93v-2.15l3,0l0,2.15L179.82,183.93z
								 M184.24,132.02l61.78,0.04l0,0.7l-61.78-0.04L184.24,132.02z M184.24,133.43l61.78,0.04l0.01,20.41l-2.21,0l0-15.81
								c0-1-0.83-1.8-1.83-1.8h-3.68c-1.01,0-1.83,0.8-1.83,1.79l0,15.81l-5.15,0l0-15.82c0-1-0.83-1.8-1.83-1.8h-3.68
								c-1.01,0-1.83,0.8-1.83,1.79l0,15.83l-5.15,0l0-15.81c0-1-0.83-1.8-1.83-1.8h-3.68c-1.01,0-1.83,0.8-1.83,1.79l0,15.82
								l-5.16,0l0-15.78c0-1-0.83-1.8-1.83-1.8h-3.68c-1.01,0-1.83,0.8-1.83,1.79l0,15.79l-5.16,0l0-15.77c0-1-0.83-1.8-1.83-1.8
								h-3.68c-1.01,0-1.83,0.8-1.83,1.79l0,15.78l-2.24,0L184.24,133.43z M238.67,152.03l2.94,0c0.41,0,0.74,0.32,0.74,0.71v1.13
								l-4.41,0l0-1.13C237.95,152.36,238.28,152.04,238.67,152.03z M237.88,150.18v-11.36c0-0.84,0.72-0.71,1.78-0.74l0,12.1
								H237.88z M240.63,150.18l0-12.1c1.1,0.03,1.74-0.12,1.74,0.68l0.05,11.42H240.63z M226.18,152.01l2.94,0
								c0.41,0,0.74,0.32,0.74,0.71v1.15l-4.41,0l0-1.14C225.45,152.34,225.78,152.02,226.18,152.01z M225.39,150.16V138.8
								c0-0.84,0.72-0.71,1.78-0.74l0,12.1H225.39z M228.13,150.16l0-12.1c1.1,0.03,1.74-0.12,1.74,0.68l0.05,11.42H228.13z
								 M213.68,152.01l2.94,0c0.41,0,0.74,0.32,0.74,0.71v1.14l-4.41,0l0-1.14C212.96,152.34,213.29,152.02,213.68,152.01z
								 M212.89,150.16V138.8c0-0.84,0.72-0.71,1.78-0.74l0,12.1H212.89z M215.64,150.16l0-12.1c1.1,0.03,1.74-0.12,1.74,0.68
								l0.05,11.42H215.64z M201.18,152.03l2.94,0c0.41,0,0.74,0.32,0.74,0.71v1.11l-4.41,0l0-1.11
								C200.45,152.36,200.79,152.04,201.18,152.03z M200.39,150.18v-11.36c0-0.84,0.72-0.71,1.78-0.74l0,12.1H200.39z
								 M203.13,150.18l0-12.1c1.1,0.03,1.74-0.12,1.74,0.68l0.05,11.42H203.13z M188.68,152.03l2.94,0c0.41,0,0.74,0.32,0.74,0.71
								v1.1l-4.41,0l0-1.1C187.95,152.36,188.29,152.04,188.68,152.03z M187.89,150.18v-11.36c0-0.84,0.72-0.71,1.78-0.74l0,12.1
								H187.89z M190.63,150.18l0-12.1c1.1,0.03,1.74-0.12,1.74,0.68l0.05,11.42H190.63z M243.1,183.98l-57.34-0.05v-2.14
								l57.34,0.03V183.98z M185.39,180.36l-0.01-5.02l58.08,0.03l0.01,5.01L185.39,180.36z M190.16,172.13
								c1.63,0,2.94,0.8,2.93,1.78l0,0.01l-5.88,0l0,0C187.21,172.92,188.55,172.13,190.16,172.13z M187.57,171.04v-8.95
								c0-1.19,0.88-2.14,2.04-2.39l0,11.34L187.57,171.04z M192.76,171.05l-2.06,0l0-11.34c0.49,0.1,0.96,0.3,1.32,0.67
								c0.47,0.47,0.73,1.09,0.73,1.73v0L192.76,171.05z M202.66,172.13c1.62,0,2.94,0.8,2.94,1.79l-5.87,0l0,0
								C199.73,172.93,201.03,172.13,202.66,172.13z M200.07,162.1c0-0.65,0.26-1.26,0.73-1.73c0.36-0.36,0.82-0.55,1.31-0.66
								l0,11.34l-2.04,0L200.07,162.1z M203.2,159.72c1.16,0.25,2.04,1.2,2.04,2.39l0,8.95l-2.04,0L203.2,159.72z M215.15,172.14
								c1.64,0,2.95,0.8,2.95,1.79l-5.88,0l0,0C212.22,172.94,213.53,172.14,215.15,172.14z M212.58,171.05v-8.95
								c0-0.65,0.26-1.26,0.72-1.73c0.36-0.35,0.81-0.55,1.3-0.65v11.33L212.58,171.05z M215.69,171.06v-11.33
								c1.16,0.25,2.04,1.19,2.04,2.38l0,8.96L215.69,171.06z M227.66,172.15c1.62,0,2.94,0.8,2.94,1.79l-5.88,0
								C224.71,172.94,226.04,172.15,227.66,172.15z M225.07,162.11c0-1.19,0.89-2.13,2.04-2.38l0,11.34h-2.04L225.07,162.11z
								 M228.2,159.73c1.16,0.25,2.04,1.2,2.04,2.38l0,8.96h-2.04L228.2,159.73z M240.15,172.16c1.63,0,2.94,0.79,2.95,1.79l-5.88,0
								C237.22,172.94,238.54,172.16,240.15,172.16z M237.56,162.11c0-1.18,0.89-2.13,2.04-2.38l0,11.33h-2.04L237.56,162.11z
								 M240.69,159.74c1.16,0.25,2.04,1.2,2.05,2.39v8.94h-2.04L240.69,159.74z M244.92,173.95v-11.82v0
								c-0.01-2.58-2.15-4.67-4.78-4.67c-2.63,0-4.77,2.09-4.77,4.67l0,11.83l-2.95,0l0-11.82c0-2.57-2.14-4.67-4.77-4.67h-0.01
								c-2.62,0-4.75,2.09-4.76,4.66v0l0.01,11.83l-2.97,0l0-11.83c0-2.57-2.14-4.66-4.77-4.67h-0.01c-1.28,0-2.48,0.49-3.38,1.39
								c-0.88,0.88-1.36,2.04-1.36,3.27v11.82l-2.97,0l0-11.82c0-2.57-2.14-4.67-4.76-4.68h-0.01h-0.01c-1.28,0-2.49,0.5-3.39,1.4
								c-0.88,0.88-1.37,2.04-1.37,3.28l0.01,11.82l-2.95,0l-0.01-11.81c0-1.23-0.48-2.39-1.36-3.28c-0.91-0.91-2.12-1.41-3.4-1.41
								h-0.01h0c-2.63,0-4.77,2.1-4.77,4.68v11.82l-1.09,0v-11.82c0-0.57,0.17-1.09,0.33-1.61l0-4.46l61.4,0.04l0.01,17.89
								L244.92,173.95z M246.13,129.53h-0.11v0.34l-61.78-0.04l0-6.08h-7.28l0,1.57l-4.99-5.49l85.27,0.05l-11.21,5.23v1.49v0.43
								v0.05c0.01,0.01,0.03,0.01,0.05,0.02c0.47,0.32,0.77,0.77,0.77,1.26C246.84,128.8,246.56,129.22,246.13,129.53z
								 M247.14,183.98v-2.16l39.69,0.03l0.01,2.14L247.14,183.98z"/>
						</g>
					</g>
					<g>
						<path class="st0" d="M82.48,158.96l0.68-2.65l-5.3-0.01C79.82,156.37,81.47,157.43,82.48,158.96z"/>
					</g>
					<g>
						<path class="st0" d="M72.83,158.95c1.01-1.53,2.65-2.59,4.62-2.66l-5.3-0.01L72.83,158.95z"/>
					</g>
				</g>
			</g>
			<g>
				<path class="st3" d="M217.45,207.52c-4.14,2.17-9.31,4.2-15.27,5.94c-5.95,1.74-12.7,3.18-20,4.19
					c-7.29,1.01-15.13,1.59-23.25,1.59c-8.14,0-15.97-0.58-23.27-1.61c-7.28-1.02-14.04-2.48-20-4.22
					c-5.95-1.74-11.12-3.78-15.25-5.97c-4.13-2.18-7.22-4.5-9.03-6.83c-1.81-2.32-2.52-4.5-2.63-6.51l3.04,40.2
					c0.11,2.48,0.78,5.12,2.51,7.86c1.73,2.74,4.69,5.49,8.64,8.06c3.95,2.58,8.89,4.98,14.6,7.03c5.7,2.07,12.17,3.79,19.13,4.98
					c6.99,1.21,14.48,1.9,22.26,1.91c7.79,0,15.29-0.68,22.26-1.88c6.97-1.19,13.42-2.89,19.12-4.95c5.7-2.05,10.66-4.44,14.61-7.01
					c3.95-2.57,6.91-5.31,8.62-8.05c1.74-2.73,2.4-5.39,2.51-7.87l3.03-40.2c-0.12,2.02-0.83,4.18-2.64,6.5
					C224.67,203.01,221.58,205.34,217.45,207.52z"/>
				<g>
					<path class="st3" d="M258.55,230.83l-0.15,0l-4.78-0.2c-23.42,25.49-57.22,41.55-94.89,41.55c-37.53,0-71.24-15.94-94.64-41.27
						l-4.4-0.09l-0.66,0.01c-3-0.06-5.98-0.24-9.02-0.48c-0.35-0.03-1.01-0.11-1.75-0.27c25.57,32.32,65.59,53.22,110.69,53.24
						c45.22,0.03,85.32-20.93,110.87-53.36c-0.97,0.27-1.83,0.36-2.27,0.39C264.53,230.59,261.56,230.77,258.55,230.83z"/>
					<g>
						<path class="st3" d="M23.29,179.77l-0.1-0.37l0.92-0.92v-8.6l1.1-1.1v-46.73l7.38-3.27C37.9,95.7,49.76,74.51,67.33,57.39
							c9.96-9.7,21.27-17.59,33.5-23.58c17.39-8.7,37.06-13.63,57.9-13.63c22.6,0,43.81,5.78,62.24,15.9
							c1.27,0.68,2.52,1.41,3.77,2.13c0.34,0.2,0.68,0.42,1.03,0.62c29.58,17.52,51.49,46.17,59.37,80.01l7.59,3.36v46.73l1.1,1.1
							v8.6l0.83,0.83l-0.09,0.31h0.13c2.64-10.47,4.07-21.41,4.07-32.68c-0.02-75.28-62.64-136.36-139.9-136.41
							C81.64,10.63,19.04,71.62,19.07,146.92c0,11.33,1.45,22.33,4.12,32.86H23.29z"/>
						<path class="st3" d="M38.27,188.68H25.9c4,12.08,9.64,23.44,16.74,33.8l-0.55-24.55C40.68,194.91,39.43,191.81,38.27,188.68z"
							/>
						<path class="st3" d="M279.2,188.68c-1.13,3.05-2.35,6.07-3.71,9.01l-0.56,24.97c0.01,0.11,0.01,0.28,0.01,0.42
							c7.26-10.52,13.02-22.08,17.07-34.4H279.2z"/>
					</g>
				</g>
				<g>
					<path class="st3" d="M75.5,190.72c-3.21,0.5-6.24,0.82-9.16,0.97c-2.93,0.17-5.74,0.19-8.54,0.12
						c-2.79-0.08-5.55-0.24-8.36-0.46c-2.81-0.22-0.95,0.01-2.72-0.24l0.37,16.55l0.34,15.16c-0.13,1.38,0.01,2.55,2.96,2.77
						c2.94,0.23,5.83,0.41,8.75,0.47c0.21,0.01,0.44-0.02,0.66-0.01c2.7,0.06,5.43,0.03,8.25-0.16c3.07-0.2,6.23-0.56,9.58-1.14
						c2.62-0.46,5.41-1.1,8.31-1.85l-2.55-33.74C80.64,189.78,77.99,190.33,75.5,190.72z"/>
					<path class="st3" d="M270.86,191.11c-1.78,0.25,0.08,0.02-2.72,0.24c-2.82,0.22-5.58,0.38-8.36,0.46
						c-2.8,0.07-5.61,0.05-8.54-0.12c-2.92-0.15-5.95-0.47-9.16-0.97c-2.52-0.4-5.2-0.95-7.99-1.61l-2.54,33.74
						c2.93,0.77,5.75,1.42,8.4,1.88c3.35,0.58,6.51,0.94,9.58,1.14c2.78,0.19,5.48,0.21,8.14,0.16c0.25,0,0.51,0.02,0.76,0.01
						c2.92-0.06,5.81-0.24,8.75-0.47c2.95-0.22,3.09-1.38,2.96-2.77l0.34-15.36L270.86,191.11z"/>
				</g>
			</g>
		</g>
	</g>
	<g>
		<g>
			<path class="st2" d="M109.21,231.44c0.26,0.22,0.57,0.4,0.92,0.52c0.27,0.09,0.55,0.19,0.82,0.28c0.19,0.06,0.37,0.11,0.55,0.15
				c0.18,0.03,0.34,0.03,0.48,0c0.14-0.03,0.25-0.11,0.33-0.22c0.08-0.11,0.12-0.29,0.12-0.52c0-0.35-0.12-0.65-0.34-0.92
				c-0.23-0.26-0.64-0.49-1.23-0.69c-1.33-0.45-2.66-0.93-3.99-1.42c0,1.83,0,3.67,0,5.5c0,0.15,0,0.38,0.01,0.68
				c0,0.3,0.02,0.62,0.06,0.97c0.04,0.35,0.09,0.68,0.17,0.99c0.08,0.32,0.19,0.57,0.33,0.74c0,0.06,0,0.12,0,0.18
				c-1.23-0.45-2.45-0.92-3.67-1.4c0-0.06,0-0.12,0-0.18c0.14-0.07,0.25-0.23,0.32-0.49c0.08-0.26,0.13-0.54,0.17-0.87
				c0.03-0.32,0.05-0.62,0.06-0.92c0-0.3,0.01-0.53,0.01-0.68c0-1.85,0-3.69,0-5.54c0-0.15,0-0.32-0.01-0.51
				c-0.01-0.18-0.02-0.38-0.06-0.58c-0.03-0.2-0.09-0.4-0.17-0.61c-0.08-0.21-0.19-0.39-0.32-0.57c0-0.06,0-0.12,0-0.19
				c2.35,0.93,4.71,1.8,7.09,2.61c0.63,0.21,1.2,0.48,1.71,0.8c0.51,0.32,0.95,0.69,1.31,1.09c0.36,0.41,0.64,0.86,0.83,1.35
				c0.2,0.49,0.29,1,0.29,1.54c0,0.48-0.08,0.9-0.23,1.25c-0.15,0.35-0.4,0.62-0.74,0.8c-0.34,0.18-0.77,0.27-1.3,0.26
				c-0.53-0.01-1.16-0.13-1.89-0.38c-1.02-0.35-2.04-0.7-3.05-1.07c-0.03-0.06-0.05-0.12-0.08-0.18c0.44-0.62,0.87-1.23,1.31-1.85
				C109.09,231.4,109.15,231.42,109.21,231.44z"/>
			<path class="st2" d="M126.72,232.23c0.29,1.02,0.57,2.03,0.86,3.05c-0.05,0.03-0.1,0.06-0.15,0.09c-0.18-0.16-0.42-0.32-0.7-0.48
				c-0.28-0.15-0.6-0.3-0.94-0.43c-0.34-0.13-0.7-0.26-1.08-0.38c-0.38-0.12-0.76-0.22-1.15-0.32c-0.98-0.24-1.97-0.49-2.95-0.76
				c0,1.83,0,3.66,0,5.49c0,0.15,0,0.38,0.01,0.68c0,0.3,0.02,0.62,0.05,0.96c0.03,0.34,0.08,0.67,0.15,0.97
				c0.07,0.31,0.17,0.54,0.29,0.7c0,0.06,0,0.12,0,0.18c-1.22-0.32-2.44-0.66-3.65-1.01c0-0.06,0-0.12,0-0.18
				c0.13-0.08,0.23-0.26,0.31-0.53c0.08-0.27,0.13-0.56,0.17-0.88c0.04-0.32,0.06-0.63,0.06-0.93c0.01-0.3,0.01-0.53,0.01-0.68
				c0-1.47,0-2.94,0-4.41c0-0.15-0.01-0.38-0.02-0.67c-0.01-0.29-0.05-0.61-0.1-0.94c-0.06-0.34-0.14-0.67-0.24-0.99
				c-0.11-0.32-0.26-0.59-0.45-0.81c0-0.06,0-0.12,0-0.19C120.34,230.7,123.52,231.52,126.72,232.23z"/>
			<path class="st2" d="M126.75,243.19c0.16-0.09,0.34-0.25,0.53-0.51c0.19-0.25,0.37-0.52,0.55-0.81c0.18-0.29,0.34-0.57,0.48-0.84
				c0.11-0.2,0.21-0.41,0.32-0.61c0.83-1.67,1.67-3.35,2.5-5.03c0.07-0.14,0.14-0.29,0.22-0.47c0.08-0.17,0.14-0.35,0.19-0.52
				c0.05-0.18,0.06-0.35,0.05-0.53c-0.02-0.18-0.08-0.33-0.19-0.48c0-0.06,0-0.12,0-0.19c1.33,0.25,2.65,0.49,3.99,0.71
				c0,0.06,0,0.12,0,0.19c-0.08,0.12-0.09,0.31-0.02,0.57c0.07,0.26,0.19,0.57,0.34,0.92c0.97,2.21,1.94,4.4,2.92,6.59
				c0.11,0.24,0.22,0.49,0.33,0.73c0.15,0.32,0.31,0.66,0.49,1.01c0.18,0.36,0.36,0.69,0.54,1c0.18,0.32,0.34,0.54,0.49,0.69
				c0,0.06,0,0.12,0,0.18c-1.24-0.16-2.47-0.33-3.71-0.52c0-0.06,0-0.12,0-0.18c0.09-0.11,0.14-0.25,0.14-0.41
				c0-0.17-0.03-0.35-0.08-0.53c-0.05-0.19-0.12-0.37-0.2-0.56c-0.08-0.18-0.15-0.36-0.23-0.54c-0.02,0-0.04,0-0.06,0.01
				c-1.82-0.29-3.63-0.6-5.43-0.95c-0.02-0.01-0.03-0.02-0.04-0.03c-0.08,0.15-0.15,0.3-0.23,0.45c-0.08,0.16-0.15,0.33-0.21,0.49
				c-0.06,0.17-0.09,0.33-0.09,0.5c-0.01,0.17,0.04,0.32,0.13,0.46c0,0.06,0,0.12,0,0.18c-1.24-0.24-2.47-0.5-3.71-0.78
				C126.75,243.31,126.75,243.25,126.75,243.19z M133.54,236.33c-0.02,0-0.04-0.01-0.06-0.01c-0.63,1.25-1.25,2.49-1.87,3.73
				c1.27,0.24,2.55,0.47,3.83,0.67C134.8,239.26,134.17,237.8,133.54,236.33z"/>
			<path class="st2" d="M147.56,237.16c0.06-0.18,0.1-0.36,0.12-0.55c0.03-0.19,0.03-0.38,0.02-0.56c-0.02-0.18-0.05-0.33-0.12-0.46
				c0-0.06,0-0.12,0-0.19c1.27,0.1,2.54,0.19,3.81,0.26c0,0.06,0,0.12,0,0.19c-0.12,0.12-0.25,0.25-0.37,0.42
				c-0.12,0.17-0.24,0.34-0.36,0.52c-0.11,0.18-0.22,0.36-0.33,0.54c-0.11,0.18-0.2,0.34-0.27,0.49c-1.07,1.94-2.14,3.86-3.2,5.78
				c-0.12,0.23-0.23,0.44-0.33,0.64c-0.1,0.2-0.18,0.4-0.26,0.6c-0.07,0.21-0.13,0.42-0.16,0.64c-0.03,0.22-0.05,0.47-0.05,0.74
				c0,0.06,0,0.12,0,0.18c-1.15-0.11-2.31-0.23-3.46-0.36c0-0.06,0-0.12,0-0.18c0.75-1.17,1.5-2.34,2.25-3.52
				c-0.01-0.02-0.02-0.03-0.03-0.05c-0.35-0.04-0.73-0.06-1.14-0.07c-0.41-0.01-0.75,0-1.03,0.04c-0.04-0.04-0.07-0.07-0.11-0.11
				c-0.05-0.43-0.14-0.83-0.28-1.18c-0.13-0.35-0.3-0.73-0.51-1.15c-0.51-0.99-1.01-1.98-1.52-2.97c-0.1-0.18-0.19-0.37-0.29-0.55
				c-0.11-0.2-0.22-0.4-0.35-0.6c-0.12-0.2-0.25-0.4-0.38-0.59c-0.13-0.19-0.26-0.35-0.38-0.49c0-0.06,0-0.12,0-0.19
				c1.3,0.18,2.61,0.35,3.92,0.5c0,0.06,0,0.12,0,0.19c-0.05,0.12-0.08,0.26-0.08,0.43c0,0.17,0.02,0.36,0.06,0.55
				c0.04,0.19,0.09,0.39,0.15,0.58c0.07,0.19,0.14,0.37,0.23,0.53c0.62,1.27,1.24,2.54,1.86,3.8c0.13,0.01,0.26,0.03,0.39,0.04
				c0.67-1.14,1.35-2.28,2.02-3.43C147.43,237.49,147.5,237.34,147.56,237.16z"/>
			<path class="st2" d="M152.95,241.36c0.42,0.07,0.84,0.13,1.26,0.19c0.5,0.02,1.01,0.04,1.51,0.05c0.48-0.03,0.96-0.07,1.45-0.11
				c0.05,0.04,0.1,0.07,0.16,0.11c-0.34,0.69-0.68,1.37-1.03,2.06c-0.06,0-0.11,0-0.17,0c-0.15-0.16-0.34-0.27-0.57-0.3
				c-0.23-0.04-0.45-0.06-0.64-0.07c-0.39-0.01-0.79-0.03-1.18-0.04c-0.29-0.01-0.57-0.01-0.83,0c-0.26,0.01-0.53,0.1-0.8,0.26
				c-0.05-0.03-0.1-0.06-0.16-0.1c0.26-0.69,0.52-1.37,0.78-2.06C152.8,241.35,152.88,241.36,152.95,241.36z"/>
			<path class="st2" d="M173.37,235.52c-0.14,0.14-0.26,0.29-0.34,0.47c-0.08,0.18-0.14,0.37-0.18,0.56
				c-0.04,0.19-0.06,0.38-0.06,0.56c0,0.19-0.01,0.35-0.01,0.5c0,1.85,0,3.69,0,5.54c0,0.15,0,0.38,0.01,0.68
				c0.01,0.3,0.03,0.61,0.06,0.94c0.04,0.33,0.1,0.64,0.18,0.92c0.08,0.29,0.2,0.48,0.34,0.59c0,0.06,0,0.12,0,0.18
				c-1.2,0.1-2.4,0.2-3.6,0.27c0-0.06,0-0.12,0-0.18c0.12-0.13,0.22-0.34,0.28-0.64c0.06-0.29,0.11-0.6,0.14-0.94
				c0.03-0.33,0.05-0.65,0.05-0.95c0.01-0.3,0.01-0.53,0.01-0.68c0-0.94,0-1.89,0-2.83c-0.02,0-0.04,0-0.06,0
				c-1.02,1.75-2.04,3.49-3.06,5.22c-0.62,0.03-1.24,0.05-1.87,0.07c-0.96-1.65-1.92-3.31-2.88-4.97c-0.02,0-0.04,0-0.06,0
				c0,0.94,0,1.89,0,2.83c0,0.15,0,0.38,0.01,0.68c0,0.3,0.03,0.61,0.07,0.94c0.04,0.33,0.1,0.64,0.19,0.93
				c0.08,0.29,0.2,0.5,0.36,0.62c0,0.06,0,0.12,0,0.18c-1.24,0.02-2.48,0.03-3.72,0.02c0-0.06,0-0.12,0-0.18
				c0.13-0.12,0.24-0.33,0.32-0.62c0.08-0.29,0.13-0.6,0.17-0.93c0.04-0.33,0.06-0.64,0.06-0.94c0.01-0.3,0.01-0.53,0.01-0.68
				c0-1.85,0-3.69,0-5.54c0-0.15,0-0.32-0.01-0.5c0-0.18-0.03-0.37-0.06-0.56c-0.04-0.19-0.09-0.37-0.17-0.54
				c-0.08-0.17-0.19-0.32-0.32-0.44c0-0.06,0-0.12,0-0.19c1.39,0.01,2.78,0,4.17-0.03c0,0.06,0,0.12,0,0.19
				c-0.1,0.12-0.14,0.27-0.15,0.44c0,0.17,0.02,0.34,0.07,0.52c0.05,0.18,0.12,0.36,0.21,0.54c0.09,0.18,0.17,0.33,0.26,0.48
				c0.81,1.4,1.63,2.8,2.44,4.19c0.03,0,0.06,0,0.09,0c0.86-1.46,1.72-2.92,2.58-4.39c0.08-0.15,0.17-0.31,0.26-0.5
				c0.09-0.18,0.16-0.37,0.22-0.56c0.06-0.19,0.09-0.37,0.09-0.53c0-0.17-0.04-0.31-0.12-0.43c0-0.06,0-0.12,0-0.19
				c1.34-0.08,2.68-0.18,4.02-0.3C173.37,235.39,173.37,235.46,173.37,235.52z"/>
			<path class="st2" d="M176.35,238.24c0.38-0.77,0.89-1.43,1.53-2.01c0.64-0.58,1.39-1.04,2.24-1.41c0.85-0.37,1.74-0.62,2.68-0.76
				c0.65-0.1,1.24-0.14,1.78-0.12c0.54,0.02,1.02,0.07,1.46,0.15c0.43,0.08,0.8,0.17,1.11,0.28c0.31,0.11,0.56,0.2,0.75,0.28
				c-0.27,1.02-0.53,2.04-0.8,3.06c-0.05,0.01-0.1,0.02-0.15,0.03c-0.59-0.63-1.29-1.03-2.12-1.22c-0.83-0.18-1.68-0.21-2.57-0.08
				c-0.46,0.07-0.93,0.2-1.38,0.4c-0.46,0.2-0.87,0.46-1.24,0.79c-0.37,0.33-0.66,0.72-0.89,1.18c-0.23,0.46-0.34,0.98-0.34,1.57
				c0,0.58,0.12,1.07,0.35,1.47c0.23,0.4,0.54,0.71,0.93,0.94c0.39,0.23,0.83,0.37,1.34,0.43c0.5,0.06,1.03,0.05,1.59-0.03
				c0.49-0.07,0.99-0.2,1.47-0.38c0.49-0.18,0.96-0.4,1.4-0.66c0.45-0.26,0.86-0.56,1.24-0.89c0.38-0.33,0.71-0.69,0.98-1.06
				c0.05,0.01,0.09,0.01,0.14,0.02c-0.31,1.17-0.62,2.34-0.94,3.5c-0.58,0.46-1.25,0.85-2,1.16c-0.75,0.31-1.53,0.53-2.33,0.65
				c-0.9,0.13-1.75,0.13-2.57,0c-0.82-0.13-1.54-0.4-2.17-0.79c-0.62-0.39-1.12-0.92-1.5-1.58c-0.38-0.66-0.57-1.45-0.57-2.38
				C175.78,239.85,175.97,239,176.35,238.24z"/>
			<path class="st2" d="M198.29,237.95c0.38,0.35,0.77,0.71,1.15,1.06c0.34,0.3,0.67,0.56,0.96,0.78c0.3,0.22,0.58,0.42,0.86,0.57
				c0.27,0.16,0.55,0.3,0.85,0.42c0,0.06,0,0.12,0,0.19c-0.22,0.25-0.46,0.45-0.73,0.58c-0.26,0.13-0.51,0.23-0.74,0.29
				c-0.48,0.13-0.9,0.19-1.27,0.17c-0.37-0.01-0.72-0.1-1.05-0.23c-0.32-0.14-0.64-0.34-0.93-0.58c-0.3-0.24-0.61-0.54-0.92-0.88
				c-0.39-0.4-0.77-0.8-1.16-1.2c-0.02,0-0.04,0.01-0.06,0.01c-0.43,0.65-0.85,1.3-1.28,1.94c-0.12,0.18-0.24,0.37-0.36,0.55
				c-0.14,0.21-0.26,0.41-0.37,0.63c-0.11,0.21-0.19,0.4-0.24,0.59c-0.05,0.18-0.04,0.33,0.04,0.43c0,0.06,0,0.12,0,0.18
				c-1.25,0.28-2.51,0.54-3.77,0.78c0-0.06,0-0.12,0-0.18c0.16-0.15,0.31-0.33,0.48-0.53c0.16-0.21,0.33-0.42,0.49-0.63
				c0.16-0.22,0.32-0.43,0.46-0.64c0.13-0.19,0.27-0.38,0.4-0.57c0.92-1.32,1.85-2.65,2.77-3.99c-0.89-0.91-1.78-1.83-2.68-2.75
				c-0.26-0.27-0.55-0.57-0.9-0.88c-0.34-0.32-0.69-0.58-1.05-0.77c0-0.06,0-0.12,0-0.19c1.41-0.27,2.81-0.57,4.21-0.88
				c0,0.06,0,0.12,0,0.19c-0.06,0.14-0.07,0.28-0.02,0.45c0.05,0.16,0.13,0.33,0.24,0.49c0.11,0.17,0.24,0.32,0.38,0.47
				c0.13,0.14,0.26,0.28,0.4,0.41c0.35,0.36,0.69,0.73,1.04,1.09c0.02,0,0.04-0.01,0.06-0.01c0.34-0.52,0.68-1.05,1.02-1.58
				c0.13-0.2,0.26-0.39,0.39-0.59c0.14-0.21,0.26-0.43,0.37-0.64c0.11-0.21,0.19-0.41,0.25-0.6c0.05-0.19,0.06-0.35,0.02-0.48
				c0-0.06,0-0.12,0-0.19c1.29-0.33,2.57-0.67,3.85-1.03c0,0.06,0,0.12,0,0.19c-0.2,0.18-0.4,0.38-0.59,0.6
				c-0.19,0.23-0.37,0.45-0.55,0.69c-0.17,0.23-0.34,0.46-0.49,0.69c-0.14,0.21-0.28,0.42-0.42,0.62c-0.81,1.23-1.63,2.46-2.45,3.68
				C197.39,237.1,197.84,237.53,198.29,237.95z"/>
			<path class="st2" d="M203.03,240.7c0.16-0.17,0.33-0.43,0.52-0.78c0.19-0.34,0.37-0.71,0.54-1.09c0.18-0.38,0.33-0.74,0.48-1.09
				c0.1-0.26,0.21-0.52,0.31-0.78c0.82-2.1,1.63-4.2,2.45-6.31c0.07-0.17,0.14-0.37,0.22-0.58c0.08-0.21,0.13-0.42,0.18-0.61
				c0.05-0.2,0.06-0.38,0.05-0.55c-0.02-0.17-0.08-0.29-0.19-0.38c0-0.06,0-0.12,0-0.19c1.29-0.42,2.58-0.86,3.87-1.32
				c0,0.06,0,0.12,0,0.19c-0.08,0.16-0.08,0.35-0.01,0.58c0.07,0.22,0.18,0.47,0.33,0.75c0.94,1.71,1.87,3.41,2.8,5.11
				c0.11,0.19,0.21,0.37,0.32,0.56c0.14,0.25,0.3,0.5,0.47,0.76c0.17,0.27,0.35,0.51,0.52,0.73c0.17,0.23,0.33,0.37,0.46,0.44
				c0,0.06,0,0.12,0,0.18c-1.18,0.47-2.36,0.92-3.55,1.35c0-0.06,0-0.12,0-0.18c0.09-0.16,0.13-0.32,0.13-0.49
				c0-0.17-0.03-0.33-0.07-0.49c-0.05-0.16-0.11-0.31-0.19-0.46c-0.07-0.14-0.15-0.28-0.22-0.42c-0.02,0.01-0.04,0.03-0.06,0.04
				c-1.75,0.64-3.5,1.24-5.27,1.81c-0.01,0-0.03,0-0.04,0c-0.07,0.19-0.15,0.38-0.22,0.57c-0.08,0.2-0.15,0.4-0.2,0.6
				c-0.05,0.2-0.09,0.38-0.09,0.55c-0.01,0.17,0.04,0.3,0.13,0.4c0,0.06,0,0.12,0,0.18c-1.21,0.39-2.42,0.76-3.64,1.12
				C203.03,240.82,203.03,240.76,203.03,240.7z M209.68,230.37c-0.02,0.01-0.04,0.01-0.06,0.02c-0.61,1.56-1.21,3.13-1.82,4.68
				c1.24-0.41,2.48-0.83,3.71-1.27C210.91,232.66,210.29,231.52,209.68,230.37z"/>
		</g>
	</g>
	<g>
		<g>
			<path class="st0" d="M139.16,203.45c0.01,0.33,0.04,0.67,0.09,1.03c0.05,0.36,0.12,0.69,0.22,1.01c0.1,0.31,0.24,0.54,0.42,0.67
				v0.14h-3.45v-0.14c0.18-0.13,0.33-0.36,0.45-0.67c0.11-0.32,0.21-0.65,0.27-1.01c0.07-0.36,0.11-0.7,0.13-1.03
				c0.02-0.32,0.03-0.57,0.03-0.73v-4.77l0.37-0.75l-0.05-0.03c-0.17,0.11-0.41,0.2-0.72,0.27c-0.31,0.07-0.61,0.1-0.89,0.1
				c-0.1,0-0.2,0-0.29-0.02c-0.1-0.01-0.2-0.03-0.31-0.06v-0.18c0.59-0.36,1.09-0.79,1.52-1.3c0.43-0.51,0.76-1.02,1-1.53h1.77v0.15
				c-0.13,0.13-0.23,0.3-0.31,0.53c-0.07,0.22-0.14,0.46-0.18,0.7c-0.04,0.24-0.07,0.49-0.08,0.72c-0.01,0.24-0.02,0.44-0.02,0.6
				v5.56C139.15,202.88,139.15,203.13,139.16,203.45z"/>
			<path class="st0" d="M143.99,199.06c-0.34-0.41-0.5-0.91-0.5-1.5c0-0.57,0.15-1.07,0.46-1.48c0.31-0.41,0.71-0.75,1.2-1.02
				c0.49-0.27,1.04-0.46,1.65-0.58c0.61-0.13,1.22-0.19,1.83-0.19c0.6,0,1.2,0.06,1.82,0.19c0.61,0.12,1.17,0.32,1.66,0.58
				c0.49,0.27,0.89,0.61,1.21,1.02c0.31,0.41,0.46,0.91,0.46,1.48c0,0.62-0.17,1.13-0.51,1.53c-0.34,0.4-0.79,0.68-1.34,0.83v0.07
				c0.34,0.09,0.65,0.21,0.94,0.37s0.55,0.37,0.77,0.61c0.22,0.24,0.4,0.53,0.53,0.85c0.13,0.32,0.2,0.68,0.2,1.07
				c0,0.59-0.14,1.11-0.43,1.56c-0.29,0.45-0.68,0.83-1.2,1.12c-0.51,0.3-1.11,0.53-1.82,0.68c-0.7,0.15-1.46,0.23-2.29,0.23
				c-0.8,0-1.55-0.07-2.25-0.23c-0.69-0.15-1.3-0.38-1.82-0.68c-0.51-0.29-0.92-0.67-1.21-1.12c-0.29-0.45-0.44-0.97-0.44-1.56
				c0-0.39,0.07-0.74,0.2-1.07c0.13-0.32,0.3-0.6,0.52-0.85c0.22-0.24,0.47-0.45,0.77-0.61c0.3-0.16,0.61-0.29,0.93-0.37v-0.07
				C144.77,199.75,144.32,199.47,143.99,199.06z M148.63,200.76c-1.28,0-2.23,0.17-2.84,0.51c-0.61,0.34-0.92,0.85-0.92,1.5
				c0,0.69,0.33,1.22,0.98,1.61c0.65,0.38,1.58,0.57,2.78,0.57c1.21,0,2.14-0.19,2.79-0.57c0.66-0.39,0.99-0.92,0.99-1.61
				C152.4,201.44,151.14,200.76,148.63,200.76z M151,196.32c-0.54-0.33-1.34-0.49-2.38-0.49s-1.83,0.16-2.37,0.49
				c-0.54,0.33-0.81,0.77-0.81,1.32c0,0.52,0.25,0.93,0.74,1.23c0.5,0.3,1.31,0.45,2.43,0.45s1.94-0.15,2.44-0.45
				c0.5-0.29,0.75-0.71,0.75-1.23C151.82,197.09,151.55,196.65,151,196.32z"/>
			<path class="st0" d="M166.62,197.36c-0.37-0.49-0.82-0.86-1.37-1.12c-0.54-0.26-1.19-0.39-1.94-0.39c-0.62,0-1.18,0.1-1.68,0.3
				c-0.5,0.2-0.93,0.49-1.28,0.86c-0.35,0.37-0.63,0.81-0.83,1.33c-0.2,0.52-0.32,1.09-0.35,1.72l0.06,0.03
				c0.48-0.6,1.05-1.02,1.71-1.27c0.66-0.25,1.41-0.37,2.25-0.37c0.69,0,1.35,0.08,1.95,0.24c0.61,0.16,1.14,0.41,1.59,0.73
				c0.45,0.33,0.8,0.73,1.07,1.22c0.26,0.49,0.39,1.06,0.39,1.71c0,0.7-0.14,1.3-0.44,1.82c-0.29,0.51-0.68,0.94-1.17,1.28
				c-0.49,0.34-1.05,0.6-1.69,0.77c-0.64,0.17-1.3,0.25-1.99,0.25c-1.78,0-3.15-0.5-4.12-1.5c-0.96-1-1.45-2.42-1.45-4.25
				c0-0.96,0.14-1.83,0.42-2.61c0.28-0.79,0.67-1.46,1.19-2.03c0.51-0.57,1.14-1,1.87-1.32c0.73-0.32,1.56-0.47,2.48-0.47
				c0.83,0,1.61,0.12,2.34,0.36s1.39,0.55,2.01,0.9l-0.89,1.81H166.62z M166.13,201.39c-0.17-0.31-0.4-0.57-0.7-0.77
				c-0.3-0.21-0.65-0.36-1.05-0.46c-0.4-0.1-0.83-0.15-1.29-0.15c-0.54,0-1.03,0.06-1.45,0.19s-0.78,0.31-1.07,0.54
				c-0.29,0.23-0.52,0.5-0.68,0.81c-0.16,0.31-0.24,0.64-0.24,0.99c0,0.35,0.07,0.67,0.23,0.98c0.15,0.3,0.37,0.56,0.66,0.78
				c0.29,0.21,0.64,0.39,1.05,0.51c0.41,0.12,0.88,0.19,1.4,0.19c0.49,0,0.94-0.06,1.35-0.17c0.41-0.11,0.77-0.28,1.07-0.5
				c0.3-0.22,0.54-0.48,0.71-0.79c0.17-0.31,0.25-0.66,0.25-1.07S166.3,201.7,166.13,201.39z"/>
			<path class="st0" d="M173.86,198.7l0.07,0.03c0.32-0.16,0.71-0.29,1.14-0.39c0.43-0.1,0.87-0.14,1.3-0.14
				c0.71,0,1.35,0.09,1.93,0.29c0.58,0.19,1.08,0.46,1.49,0.81c0.41,0.35,0.73,0.78,0.96,1.28c0.23,0.5,0.34,1.06,0.34,1.69
				c0,0.71-0.15,1.32-0.45,1.85c-0.3,0.53-0.71,0.97-1.22,1.31c-0.52,0.35-1.12,0.61-1.8,0.78c-0.68,0.17-1.42,0.26-2.2,0.26
				c-0.57,0-1.08-0.04-1.56-0.13c-0.47-0.09-0.9-0.2-1.28-0.34c-0.39-0.14-0.73-0.3-1.04-0.49c-0.31-0.18-0.59-0.38-0.84-0.58
				l0.52-2.18h0.14c0.12,0.21,0.3,0.45,0.53,0.71c0.23,0.26,0.52,0.5,0.87,0.71c0.35,0.22,0.76,0.4,1.24,0.54
				c0.48,0.14,1.03,0.21,1.64,0.21c0.67,0,1.24-0.08,1.69-0.26c0.45-0.18,0.81-0.39,1.08-0.65c0.27-0.26,0.46-0.55,0.58-0.86
				c0.11-0.31,0.17-0.6,0.17-0.87c0-0.35-0.07-0.67-0.22-0.98c-0.14-0.3-0.35-0.57-0.62-0.8c-0.27-0.23-0.59-0.41-0.98-0.55
				c-0.38-0.14-0.81-0.2-1.28-0.2c-0.24,0-0.49,0.02-0.76,0.06c-0.26,0.04-0.53,0.09-0.78,0.16s-0.5,0.16-0.73,0.26
				c-0.23,0.1-0.44,0.22-0.61,0.36h-0.15c-0.38-0.43-0.78-0.71-1.19-0.88l-0.05-0.15l1.07-5.11h6.92l1.39-0.16l0.08,0.06l-1.3,2.43
				h-0.15c-0.07-0.22-0.24-0.39-0.48-0.51c-0.25-0.13-0.57-0.19-0.99-0.19h-3.96L173.86,198.7z"/>
		</g>
	</g>
</g>
</svg>
